# MagicaVoxel @ Ephtracy

# material
mtllib button-01.mtl
usemtl palette

# normals
vn -1 0 0
vn 1 0 0
vn 0 0 1
vn 0 0 -1
vn 0 -1 0
vn 0 1 0

# texcoords
vt 0.0917969 0.5
vt 0.115234 0.5
vt 0.505859 0.5
vt 0.724609 0.5
vt 0.978516 0.5

# verts
v -5 0 6
v -5 0 -5
v -5 1 6
v -5 1 5
v -5 1 4
v -5 1 3
v -5 1 2
v -5 1 1
v -5 1 -0
v -5 1 -1
v -5 1 -2
v -5 1 -3
v -5 1 -4
v -5 1 -5
v -5 2 6
v -5 2 5
v -5 2 4
v -5 2 3
v -5 2 2
v -5 2 1
v -5 2 -0
v -5 2 -1
v -5 2 -2
v -5 2 -3
v -5 2 -4
v -5 2 -5
v -3 2 4
v -3 2 -3
v -3 3 4
v -3 3 -3
v 1 2 3
v 1 2 -2
v 1 3 3
v 1 3 -2
v -2 2 3
v -2 2 -2
v -2 3 3
v -2 3 -2
v 2 2 4
v 2 2 -3
v 2 3 4
v 2 3 -3
v 4 0 6
v 4 0 -5
v 4 1 6
v 4 1 5
v 4 1 4
v 4 1 3
v 4 1 2
v 4 1 1
v 4 1 -0
v 4 1 -1
v 4 1 -2
v 4 1 -3
v 4 1 -4
v 4 1 -5
v 4 2 6
v 4 2 5
v 4 2 4
v 4 2 3
v 4 2 2
v 4 2 1
v 4 2 -0
v 4 2 -1
v 4 2 -2
v 4 2 -3
v 4 2 -4
v 4 2 -5
v -5 0 6
v -5 1 6
v -5 2 6
v -4 1 6
v -4 2 6
v -3 1 6
v -3 2 6
v -2 1 6
v -2 2 6
v -1 1 6
v -1 2 6
v 0 1 6
v 0 2 6
v 1 1 6
v 1 2 6
v 2 1 6
v 2 2 6
v 3 1 6
v 3 2 6
v 4 0 6
v 4 1 6
v 4 2 6
v -3 2 4
v -3 3 4
v 2 2 4
v 2 3 4
v -2 2 -2
v -2 3 -2
v 1 2 -2
v 1 3 -2
v -2 2 3
v -2 3 3
v 1 2 3
v 1 3 3
v -3 2 -3
v -3 3 -3
v 2 2 -3
v 2 3 -3
v -5 0 -5
v -5 1 -5
v -5 2 -5
v -4 1 -5
v -4 2 -5
v -3 1 -5
v -3 2 -5
v -2 1 -5
v -2 2 -5
v -1 1 -5
v -1 2 -5
v 0 1 -5
v 0 2 -5
v 1 1 -5
v 1 2 -5
v 2 1 -5
v 2 2 -5
v 3 1 -5
v 3 2 -5
v 4 0 -5
v 4 1 -5
v 4 2 -5
v -5 0 6
v 4 0 6
v -4 0 5
v 3 0 5
v -4 0 -4
v 3 0 -4
v -5 0 -5
v 4 0 -5
v -5 2 6
v -4 2 6
v -3 2 6
v -2 2 6
v -1 2 6
v 0 2 6
v 1 2 6
v 2 2 6
v 3 2 6
v 4 2 6
v -5 2 5
v -4 2 5
v -3 2 5
v -2 2 5
v -1 2 5
v 0 2 5
v 1 2 5
v 2 2 5
v 3 2 5
v 4 2 5
v -5 2 4
v -4 2 4
v -3 2 4
v 2 2 4
v 3 2 4
v 4 2 4
v -5 2 3
v -4 2 3
v -2 2 3
v 1 2 3
v 3 2 3
v 4 2 3
v -5 2 2
v -4 2 2
v 3 2 2
v 4 2 2
v -5 2 1
v -4 2 1
v 3 2 1
v 4 2 1
v -5 2 -0
v -4 2 -0
v 3 2 -0
v 4 2 -0
v -5 2 -1
v -4 2 -1
v 3 2 -1
v 4 2 -1
v -5 2 -2
v -4 2 -2
v -2 2 -2
v 1 2 -2
v 3 2 -2
v 4 2 -2
v -5 2 -3
v -4 2 -3
v -3 2 -3
v 2 2 -3
v 3 2 -3
v 4 2 -3
v -5 2 -4
v -4 2 -4
v -3 2 -4
v -2 2 -4
v -1 2 -4
v 0 2 -4
v 1 2 -4
v 2 2 -4
v 3 2 -4
v 4 2 -4
v -5 2 -5
v -4 2 -5
v -3 2 -5
v -2 2 -5
v -1 2 -5
v 0 2 -5
v 1 2 -5
v 2 2 -5
v 3 2 -5
v 4 2 -5
v -3 3 4
v 2 3 4
v -2 3 3
v 1 3 3
v -2 3 -2
v 1 3 -2
v -3 3 -3
v 2 3 -3

# faces
f 3/1/1 2/1/1 1/1/1
f 4/1/1 2/1/1 3/1/1
f 5/1/1 2/1/1 4/1/1
f 6/1/1 2/1/1 5/1/1
f 7/1/1 2/1/1 6/1/1
f 8/1/1 2/1/1 7/1/1
f 9/1/1 2/1/1 8/1/1
f 10/1/1 2/1/1 9/1/1
f 11/1/1 2/1/1 10/1/1
f 12/1/1 2/1/1 11/1/1
f 13/1/1 2/1/1 12/1/1
f 14/1/1 2/1/1 13/1/1
f 15/5/1 4/5/1 3/5/1
f 16/1/1 5/1/1 4/1/1
f 16/5/1 4/5/1 15/5/1
f 17/5/1 6/5/1 5/5/1
f 17/1/1 5/1/1 16/1/1
f 18/1/1 7/1/1 6/1/1
f 18/5/1 6/5/1 17/5/1
f 19/5/1 8/5/1 7/5/1
f 19/1/1 7/1/1 18/1/1
f 20/1/1 9/1/1 8/1/1
f 20/5/1 8/5/1 19/5/1
f 21/5/1 10/5/1 9/5/1
f 21/1/1 9/1/1 20/1/1
f 22/1/1 11/1/1 10/1/1
f 22/5/1 10/5/1 21/5/1
f 23/5/1 12/5/1 11/5/1
f 23/1/1 11/1/1 22/1/1
f 24/1/1 13/1/1 12/1/1
f 24/5/1 12/5/1 23/5/1
f 25/5/1 14/5/1 13/5/1
f 25/1/1 13/1/1 24/1/1
f 26/5/1 14/5/1 25/5/1
f 29/3/1 28/3/1 27/3/1
f 30/3/1 28/3/1 29/3/1
f 33/3/1 32/3/1 31/3/1
f 34/3/1 32/3/1 33/3/1
f 35/3/2 36/3/2 37/3/2
f 37/3/2 36/3/2 38/3/2
f 39/3/2 40/3/2 41/3/2
f 41/3/2 40/3/2 42/3/2
f 43/1/2 44/1/2 45/1/2
f 45/1/2 44/1/2 46/1/2
f 46/1/2 44/1/2 47/1/2
f 47/1/2 44/1/2 48/1/2
f 48/1/2 44/1/2 49/1/2
f 49/1/2 44/1/2 50/1/2
f 50/1/2 44/1/2 51/1/2
f 51/1/2 44/1/2 52/1/2
f 52/1/2 44/1/2 53/1/2
f 53/1/2 44/1/2 54/1/2
f 54/1/2 44/1/2 55/1/2
f 55/1/2 44/1/2 56/1/2
f 45/5/2 46/5/2 57/5/2
f 46/1/2 47/1/2 58/1/2
f 57/5/2 46/5/2 58/5/2
f 47/5/2 48/5/2 59/5/2
f 58/1/2 47/1/2 59/1/2
f 48/1/2 49/1/2 60/1/2
f 59/5/2 48/5/2 60/5/2
f 49/5/2 50/5/2 61/5/2
f 60/1/2 49/1/2 61/1/2
f 50/1/2 51/1/2 62/1/2
f 61/5/2 50/5/2 62/5/2
f 51/5/2 52/5/2 63/5/2
f 62/1/2 51/1/2 63/1/2
f 52/1/2 53/1/2 64/1/2
f 63/5/2 52/5/2 64/5/2
f 53/5/2 54/5/2 65/5/2
f 64/1/2 53/1/2 65/1/2
f 54/1/2 55/1/2 66/1/2
f 65/5/2 54/5/2 66/5/2
f 55/5/2 56/5/2 67/5/2
f 66/1/2 55/1/2 67/1/2
f 67/5/2 56/5/2 68/5/2
f 72/1/3 70/1/3 69/1/3
f 72/5/3 71/5/3 70/5/3
f 73/5/3 71/5/3 72/5/3
f 74/1/3 72/1/3 69/1/3
f 74/1/3 73/1/3 72/1/3
f 75/1/3 73/1/3 74/1/3
f 76/1/3 74/1/3 69/1/3
f 76/5/3 75/5/3 74/5/3
f 77/5/3 75/5/3 76/5/3
f 78/1/3 76/1/3 69/1/3
f 78/1/3 77/1/3 76/1/3
f 79/1/3 77/1/3 78/1/3
f 80/1/3 78/1/3 69/1/3
f 80/5/3 79/5/3 78/5/3
f 81/5/3 79/5/3 80/5/3
f 82/1/3 80/1/3 69/1/3
f 82/1/3 81/1/3 80/1/3
f 83/1/3 81/1/3 82/1/3
f 84/1/3 82/1/3 69/1/3
f 84/5/3 83/5/3 82/5/3
f 85/5/3 83/5/3 84/5/3
f 86/1/3 84/1/3 69/1/3
f 86/1/3 85/1/3 84/1/3
f 87/1/3 85/1/3 86/1/3
f 88/1/3 86/1/3 69/1/3
f 89/5/3 87/5/3 86/5/3
f 89/1/3 86/1/3 88/1/3
f 90/5/3 87/5/3 89/5/3
f 93/3/3 92/3/3 91/3/3
f 94/3/3 92/3/3 93/3/3
f 97/3/3 96/3/3 95/3/3
f 98/3/3 96/3/3 97/3/3
f 99/3/4 100/3/4 101/3/4
f 101/3/4 100/3/4 102/3/4
f 103/3/4 104/3/4 105/3/4
f 105/3/4 104/3/4 106/3/4
f 107/1/4 108/1/4 110/1/4
f 108/5/4 109/5/4 110/5/4
f 110/5/4 109/5/4 111/5/4
f 107/1/4 110/1/4 112/1/4
f 110/1/4 111/1/4 112/1/4
f 112/1/4 111/1/4 113/1/4
f 107/1/4 112/1/4 114/1/4
f 112/5/4 113/5/4 114/5/4
f 114/5/4 113/5/4 115/5/4
f 107/1/4 114/1/4 116/1/4
f 114/1/4 115/1/4 116/1/4
f 116/1/4 115/1/4 117/1/4
f 107/1/4 116/1/4 118/1/4
f 116/5/4 117/5/4 118/5/4
f 118/5/4 117/5/4 119/5/4
f 107/1/4 118/1/4 120/1/4
f 118/1/4 119/1/4 120/1/4
f 120/1/4 119/1/4 121/1/4
f 107/1/4 120/1/4 122/1/4
f 120/5/4 121/5/4 122/5/4
f 122/5/4 121/5/4 123/5/4
f 107/1/4 122/1/4 124/1/4
f 122/1/4 123/1/4 124/1/4
f 124/1/4 123/1/4 125/1/4
f 107/1/4 124/1/4 126/1/4
f 124/5/4 125/5/4 127/5/4
f 126/1/4 124/1/4 127/1/4
f 127/5/4 125/5/4 128/5/4
f 131/1/5 130/1/5 129/1/5
f 132/1/5 130/1/5 131/1/5
f 133/1/5 131/1/5 129/1/5
f 133/5/5 132/5/5 131/5/5
f 134/1/5 130/1/5 132/1/5
f 134/5/5 132/5/5 133/5/5
f 135/1/5 133/1/5 129/1/5
f 135/1/5 134/1/5 133/1/5
f 136/1/5 130/1/5 134/1/5
f 136/1/5 134/1/5 135/1/5
f 137/5/6 138/5/6 147/5/6
f 138/1/6 139/1/6 148/1/6
f 147/5/6 138/5/6 148/5/6
f 139/5/6 140/5/6 149/5/6
f 148/1/6 139/1/6 149/1/6
f 140/1/6 141/1/6 150/1/6
f 149/5/6 140/5/6 150/5/6
f 141/5/6 142/5/6 151/5/6
f 150/1/6 141/1/6 151/1/6
f 142/1/6 143/1/6 152/1/6
f 151/5/6 142/5/6 152/5/6
f 143/5/6 144/5/6 153/5/6
f 152/1/6 143/1/6 153/1/6
f 144/1/6 145/1/6 154/1/6
f 153/5/6 144/5/6 154/5/6
f 145/5/6 146/5/6 155/5/6
f 154/1/6 145/1/6 155/1/6
f 155/5/6 146/5/6 156/5/6
f 147/1/6 148/1/6 157/1/6
f 148/1/6 149/1/6 157/1/6
f 157/1/6 149/1/6 158/1/6
f 153/2/6 154/2/6 159/2/6
f 158/1/6 149/1/6 159/1/6
f 149/2/6 150/2/6 159/2/6
f 150/2/6 151/2/6 159/2/6
f 151/2/6 152/2/6 159/2/6
f 152/2/6 153/2/6 159/2/6
f 155/1/6 156/1/6 160/1/6
f 159/2/6 154/2/6 160/2/6
f 154/1/6 155/1/6 160/1/6
f 160/1/6 156/1/6 161/1/6
f 161/1/6 156/1/6 162/1/6
f 157/5/6 158/5/6 163/5/6
f 158/2/6 159/2/6 164/2/6
f 163/5/6 158/5/6 164/5/6
f 161/5/6 162/5/6 167/5/6
f 160/2/6 161/2/6 167/2/6
f 167/5/6 162/5/6 168/5/6
f 163/1/6 164/1/6 169/1/6
f 164/2/6 159/2/6 170/2/6
f 169/1/6 164/1/6 170/1/6
f 160/2/6 167/2/6 171/2/6
f 167/1/6 168/1/6 171/1/6
f 171/1/6 168/1/6 172/1/6
f 169/5/6 170/5/6 173/5/6
f 170/2/6 159/2/6 174/2/6
f 173/5/6 170/5/6 174/5/6
f 160/2/6 171/2/6 175/2/6
f 171/5/6 172/5/6 175/5/6
f 175/5/6 172/5/6 176/5/6
f 173/1/6 174/1/6 177/1/6
f 174/2/6 159/2/6 178/2/6
f 177/1/6 174/1/6 178/1/6
f 160/2/6 175/2/6 179/2/6
f 175/1/6 176/1/6 179/1/6
f 179/1/6 176/1/6 180/1/6
f 177/5/6 178/5/6 181/5/6
f 178/2/6 159/2/6 182/2/6
f 181/5/6 178/5/6 182/5/6
f 160/2/6 179/2/6 183/2/6
f 179/5/6 180/5/6 183/5/6
f 183/5/6 180/5/6 184/5/6
f 181/1/6 182/1/6 185/1/6
f 182/2/6 159/2/6 186/2/6
f 185/1/6 182/1/6 186/1/6
f 165/4/6 166/4/6 187/4/6
f 187/4/6 166/4/6 188/4/6
f 160/2/6 183/2/6 189/2/6
f 183/1/6 184/1/6 189/1/6
f 189/1/6 184/1/6 190/1/6
f 185/5/6 186/5/6 191/5/6
f 186/2/6 159/2/6 192/2/6
f 191/5/6 186/5/6 192/5/6
f 192/2/6 159/2/6 193/2/6
f 160/2/6 189/2/6 194/2/6
f 189/5/6 190/5/6 195/5/6
f 194/2/6 189/2/6 195/2/6
f 195/5/6 190/5/6 196/5/6
f 192/1/6 193/1/6 197/1/6
f 191/1/6 192/1/6 197/1/6
f 197/1/6 193/1/6 198/1/6
f 193/2/6 194/2/6 199/2/6
f 198/1/6 193/1/6 199/1/6
f 199/2/6 194/2/6 200/2/6
f 200/2/6 194/2/6 201/2/6
f 201/2/6 194/2/6 202/2/6
f 202/2/6 194/2/6 203/2/6
f 195/1/6 196/1/6 204/1/6
f 203/2/6 194/2/6 204/2/6
f 194/1/6 195/1/6 204/1/6
f 204/1/6 196/1/6 205/1/6
f 205/1/6 196/1/6 206/1/6
f 197/5/6 198/5/6 207/5/6
f 198/1/6 199/1/6 208/1/6
f 207/5/6 198/5/6 208/5/6
f 199/5/6 200/5/6 209/5/6
f 208/1/6 199/1/6 209/1/6
f 200/1/6 201/1/6 210/1/6
f 209/5/6 200/5/6 210/5/6
f 201/5/6 202/5/6 211/5/6
f 210/1/6 201/1/6 211/1/6
f 202/1/6 203/1/6 212/1/6
f 211/5/6 202/5/6 212/5/6
f 203/5/6 204/5/6 213/5/6
f 212/1/6 203/1/6 213/1/6
f 204/1/6 205/1/6 214/1/6
f 213/5/6 204/5/6 214/5/6
f 205/5/6 206/5/6 215/5/6
f 214/1/6 205/1/6 215/1/6
f 215/5/6 206/5/6 216/5/6
f 217/3/6 218/3/6 219/3/6
f 219/3/6 218/3/6 220/3/6
f 217/3/6 219/3/6 221/3/6
f 220/3/6 218/3/6 222/3/6
f 217/3/6 221/3/6 223/3/6
f 221/3/6 222/3/6 223/3/6
f 222/3/6 218/3/6 224/3/6
f 223/3/6 222/3/6 224/3/6
