# MagicaVoxel @ Ephtracy

# material
mtllib skeleton.mtl
usemtl palette

# normals
vn -1 0 0
vn 1 0 0
vn 0 0 1
vn 0 0 -1
vn 0 -1 0
vn 0 1 0

# texcoords
vt 0.845703 0.5
vt 0.958984 0.5
vt 0.978516 0.5

# verts
v -3 0 -0.5
v -3 0 -1.5
v -3 1 -0.5
v -3 1 -1.5
v -3 1 -2.5
v -3 2 -1.5
v -3 2 -2.5
v -3 2 -3.5
v -3 4 -2.5
v -3 4 -3.5
v -2 0 2.5
v -2 0 1.5
v -2 0 -0.5
v -2 0 -1.5
v -2 0 -5.5
v -2 1 2.5
v -2 1 1.5
v -2 1 -0.5
v -2 1 -1.5
v -2 1 -2.5
v -2 1 -3.5
v -2 1 -4.5
v -2 1 -5.5
v -2 2 2.5
v -2 2 1.5
v -2 2 -1.5
v -2 2 -2.5
v -2 2 -3.5
v -2 2 -4.5
v -2 2 -5.5
v -2 3 -1.5
v -2 3 -2.5
v -2 3 -3.5
v -2 3 -5.5
v -2 4 -1.5
v -2 4 -2.5
v -2 4 -3.5
v -2 4 -5.5
v -2 5 -1.5
v -2 5 -5.5
v -2 6 -1.5
v -2 6 -5.5
v -2 7 -1.5
v -2 7 -2.5
v -2 7 -3.5
v -2 8 -1.5
v -2 8 -2.5
v -2 8 -3.5
v -2 9 -1.5
v -2 9 -5.5
v -1 1 -1.5
v -1 1 -2.5
v -1 1 -4.5
v -1 1 -5.5
v -1 2 -1.5
v -1 2 -2.5
v -1 2 -4.5
v -1 2 -5.5
v -1 3 -1.5
v -1 3 -2.5
v -1 3 -5.5
v -1 4 -1.5
v -1 4 -5.5
v -1 5 -2.5
v -1 5 -4.5
v -1 6 -2.5
v -1 6 -4.5
v -1 7 -1.5
v -1 7 -2.5
v -1 8 -1.5
v -1 8 -2.5
v 1 0 2.5
v 1 0 1.5
v 1 0 -0.5
v 1 0 -1.5
v 1 1 2.5
v 1 1 1.5
v 1 1 -0.5
v 1 1 -1.5
v 1 2 2.5
v 1 2 1.5
v 2 1 -1.5
v 2 1 -2.5
v 2 2 -1.5
v 2 2 -2.5
v 2 3 -2.5
v 2 3 -3.5
v 2 4 -2.5
v 2 4 -3.5
v -2 1 -1.5
v -2 1 -2.5
v -2 2 -1.5
v -2 2 -2.5
v -2 3 -2.5
v -2 3 -3.5
v -2 4 -2.5
v -2 4 -3.5
v -1 0 2.5
v -1 0 1.5
v -1 0 -0.5
v -1 0 -1.5
v -1 1 2.5
v -1 1 1.5
v -1 1 -0.5
v -1 1 -1.5
v -1 2 2.5
v -1 2 1.5
v 1 1 -1.5
v 1 1 -2.5
v 1 1 -4.5
v 1 1 -5.5
v 1 2 -1.5
v 1 2 -2.5
v 1 2 -4.5
v 1 2 -5.5
v 1 3 -1.5
v 1 3 -5.5
v 1 4 -1.5
v 1 4 -2.5
v 1 4 -3.5
v 1 4 -5.5
v 1 5 -2.5
v 1 5 -3.5
v 1 5 -4.5
v 1 6 -2.5
v 1 6 -4.5
v 1 7 -1.5
v 1 7 -2.5
v 1 8 -1.5
v 1 8 -2.5
v 2 0 2.5
v 2 0 1.5
v 2 0 -0.5
v 2 0 -1.5
v 2 0 -5.5
v 2 1 2.5
v 2 1 1.5
v 2 1 -0.5
v 2 1 -1.5
v 2 1 -2.5
v 2 1 -4.5
v 2 1 -5.5
v 2 2 2.5
v 2 2 1.5
v 2 2 -1.5
v 2 2 -2.5
v 2 2 -3.5
v 2 2 -4.5
v 2 2 -5.5
v 2 3 -1.5
v 2 3 -2.5
v 2 3 -3.5
v 2 3 -5.5
v 2 4 -1.5
v 2 4 -2.5
v 2 4 -3.5
v 2 4 -5.5
v 2 5 -1.5
v 2 5 -2.5
v 2 5 -3.5
v 2 5 -5.5
v 2 6 -1.5
v 2 6 -2.5
v 2 6 -5.5
v 2 7 -1.5
v 2 7 -2.5
v 2 7 -3.5
v 2 8 -1.5
v 2 8 -2.5
v 2 8 -3.5
v 2 9 -1.5
v 2 9 -2.5
v 2 9 -3.5
v 2 9 -5.5
v 3 0 -0.5
v 3 0 -1.5
v 3 1 -0.5
v 3 1 -1.5
v 3 1 -2.5
v 3 2 -1.5
v 3 2 -2.5
v 3 2 -3.5
v 3 4 -2.5
v 3 4 -3.5
v -2 0 2.5
v -2 1 2.5
v -2 2 2.5
v -1 0 2.5
v -1 1 2.5
v -1 2 2.5
v 1 0 2.5
v 1 1 2.5
v 1 2 2.5
v 2 0 2.5
v 2 1 2.5
v 2 2 2.5
v -3 0 -0.5
v -3 1 -0.5
v -2 0 -0.5
v -2 1 -0.5
v 2 0 -0.5
v 2 1 -0.5
v 3 0 -0.5
v 3 1 -0.5
v -3 1 -1.5
v -3 2 -1.5
v -2 1 -1.5
v -2 2 -1.5
v -2 3 -1.5
v -2 4 -1.5
v -2 5 -1.5
v -2 6 -1.5
v -2 7 -1.5
v -2 8 -1.5
v -2 9 -1.5
v -1 0 -1.5
v -1 1 -1.5
v -1 2 -1.5
v -1 3 -1.5
v -1 4 -1.5
v -1 7 -1.5
v -1 8 -1.5
v 1 0 -1.5
v 1 1 -1.5
v 1 2 -1.5
v 1 3 -1.5
v 1 4 -1.5
v 1 6 -1.5
v 1 7 -1.5
v 1 8 -1.5
v 2 1 -1.5
v 2 2 -1.5
v 2 3 -1.5
v 2 4 -1.5
v 2 5 -1.5
v 2 6 -1.5
v 2 7 -1.5
v 2 8 -1.5
v 2 9 -1.5
v 3 1 -1.5
v 3 2 -1.5
v -3 2 -2.5
v -3 4 -2.5
v -2 1 -2.5
v -2 2 -2.5
v -2 3 -2.5
v -2 4 -2.5
v -2 7 -2.5
v -2 8 -2.5
v -1 1 -2.5
v -1 2 -2.5
v -1 5 -2.5
v -1 6 -2.5
v -1 7 -2.5
v -1 8 -2.5
v 1 1 -2.5
v 1 2 -2.5
v 1 5 -2.5
v 1 6 -2.5
v 1 7 -2.5
v 1 8 -2.5
v 2 1 -2.5
v 2 2 -2.5
v 2 3 -2.5
v 2 4 -2.5
v 2 7 -2.5
v 2 8 -2.5
v 3 2 -2.5
v 3 4 -2.5
v -2 1 1.5
v -2 2 1.5
v -1 1 1.5
v -1 2 1.5
v 1 1 1.5
v 1 2 1.5
v 2 1 1.5
v 2 2 1.5
v -3 0 -1.5
v -3 1 -1.5
v -2 0 -1.5
v -2 1 -1.5
v 2 0 -1.5
v 2 1 -1.5
v 3 0 -1.5
v 3 1 -1.5
v -3 1 -2.5
v -3 2 -2.5
v -2 1 -2.5
v -2 2 -2.5
v 2 1 -2.5
v 2 2 -2.5
v 3 1 -2.5
v 3 2 -2.5
v -3 2 -3.5
v -3 4 -3.5
v -2 2 -3.5
v -2 3 -3.5
v -2 4 -3.5
v 2 2 -3.5
v 2 3 -3.5
v 2 4 -3.5
v 3 2 -3.5
v 3 4 -3.5
v -2 1 -4.5
v -2 2 -4.5
v -1 1 -4.5
v -1 2 -4.5
v -1 5 -4.5
v -1 6 -4.5
v 1 1 -4.5
v 1 2 -4.5
v 1 5 -4.5
v 1 6 -4.5
v 2 1 -4.5
v 2 2 -4.5
v -2 0 -5.5
v -2 1 -5.5
v -2 2 -5.5
v -2 3 -5.5
v -2 4 -5.5
v -2 5 -5.5
v -2 6 -5.5
v -2 9 -5.5
v -1 1 -5.5
v -1 2 -5.5
v -1 3 -5.5
v -1 4 -5.5
v 1 1 -5.5
v 1 2 -5.5
v 1 3 -5.5
v 1 4 -5.5
v 2 0 -5.5
v 2 1 -5.5
v 2 2 -5.5
v 2 3 -5.5
v 2 4 -5.5
v 2 5 -5.5
v 2 6 -5.5
v 2 9 -5.5
v -2 0 2.5
v -1 0 2.5
v 1 0 2.5
v 2 0 2.5
v -2 0 1.5
v -1 0 1.5
v 1 0 1.5
v 2 0 1.5
v -3 0 -0.5
v -2 0 -0.5
v -1 0 -0.5
v 1 0 -0.5
v 2 0 -0.5
v 3 0 -0.5
v -3 0 -1.5
v -2 0 -1.5
v -1 0 -1.5
v 1 0 -1.5
v 2 0 -1.5
v 3 0 -1.5
v -2 0 -5.5
v 2 0 -5.5
v -3 1 -1.5
v -2 1 -1.5
v 2 1 -1.5
v 3 1 -1.5
v -3 1 -2.5
v -2 1 -2.5
v 2 1 -2.5
v 3 1 -2.5
v -2 2 -1.5
v -1 2 -1.5
v 1 2 -1.5
v 2 2 -1.5
v -3 2 -2.5
v -2 2 -2.5
v -1 2 -2.5
v 1 2 -2.5
v 2 2 -2.5
v 3 2 -2.5
v -3 2 -3.5
v -2 2 -3.5
v 2 2 -3.5
v 3 2 -3.5
v -2 2 -4.5
v -1 2 -4.5
v 1 2 -4.5
v 2 2 -4.5
v -2 2 -5.5
v -1 2 -5.5
v 1 2 -5.5
v 2 2 -5.5
v -2 4 -1.5
v -1 4 -1.5
v 1 4 -1.5
v 2 4 -1.5
v -2 4 -2.5
v 1 4 -2.5
v 2 4 -2.5
v -2 4 -3.5
v 1 4 -3.5
v 2 4 -3.5
v -2 4 -5.5
v -1 4 -5.5
v 1 4 -5.5
v 2 4 -5.5
v -2 6 -1.5
v 1 6 -1.5
v 2 6 -1.5
v -1 6 -2.5
v 1 6 -2.5
v 2 6 -2.5
v -1 6 -4.5
v 1 6 -4.5
v -2 6 -5.5
v 2 6 -5.5
v -2 8 -1.5
v -1 8 -1.5
v 1 8 -1.5
v 2 8 -1.5
v -2 8 -2.5
v -1 8 -2.5
v 1 8 -2.5
v 2 8 -2.5
v -2 1 1.5
v -1 1 1.5
v 1 1 1.5
v 2 1 1.5
v -3 1 -0.5
v -2 1 -0.5
v -1 1 -0.5
v 1 1 -0.5
v 2 1 -0.5
v 3 1 -0.5
v -3 1 -1.5
v -2 1 -1.5
v -1 1 -1.5
v 1 1 -1.5
v 2 1 -1.5
v 3 1 -1.5
v -2 1 -2.5
v -1 1 -2.5
v 1 1 -2.5
v 2 1 -2.5
v -2 1 -4.5
v -1 1 -4.5
v 1 1 -4.5
v 2 1 -4.5
v -2 1 -5.5
v -1 1 -5.5
v 1 1 -5.5
v 2 1 -5.5
v -2 2 2.5
v -1 2 2.5
v 1 2 2.5
v 2 2 2.5
v -2 2 1.5
v -1 2 1.5
v 1 2 1.5
v 2 2 1.5
v -3 2 -1.5
v -2 2 -1.5
v 2 2 -1.5
v 3 2 -1.5
v -3 2 -2.5
v -2 2 -2.5
v 2 2 -2.5
v 3 2 -2.5
v -2 3 -1.5
v -1 3 -1.5
v 1 3 -1.5
v 2 3 -1.5
v -2 3 -2.5
v -1 3 -2.5
v 2 3 -2.5
v -2 3 -3.5
v 2 3 -3.5
v -2 3 -5.5
v -1 3 -5.5
v 1 3 -5.5
v 2 3 -5.5
v -3 4 -2.5
v -2 4 -2.5
v 2 4 -2.5
v 3 4 -2.5
v -3 4 -3.5
v -2 4 -3.5
v 2 4 -3.5
v 3 4 -3.5
v -2 5 -1.5
v 2 5 -1.5
v -1 5 -2.5
v 1 5 -2.5
v 2 5 -2.5
v 1 5 -3.5
v 2 5 -3.5
v -1 5 -4.5
v 1 5 -4.5
v -2 5 -5.5
v 2 5 -5.5
v -2 7 -1.5
v -1 7 -1.5
v 1 7 -1.5
v 2 7 -1.5
v -2 7 -2.5
v -1 7 -2.5
v 1 7 -2.5
v 2 7 -2.5
v -2 9 -1.5
v 2 9 -1.5
v 1 9 -2.5
v 2 9 -2.5
v 1 9 -3.5
v 2 9 -3.5
v -2 9 -5.5
v 2 9 -5.5

# faces
f 3/2/1 2/2/1 1/2/1
f 4/2/1 2/2/1 3/2/1
f 6/2/1 5/2/1 4/2/1
f 7/2/1 5/2/1 6/2/1
f 9/2/1 8/2/1 7/2/1
f 10/2/1 8/2/1 9/2/1
f 16/3/1 12/3/1 11/3/1
f 17/2/1 13/2/1 12/2/1
f 17/3/1 12/3/1 16/3/1
f 18/2/1 13/2/1 17/2/1
f 19/2/1 15/2/1 14/2/1
f 20/2/1 15/2/1 19/2/1
f 21/2/1 15/2/1 20/2/1
f 22/2/1 15/2/1 21/2/1
f 23/2/1 15/2/1 22/2/1
f 24/2/1 17/2/1 16/2/1
f 25/2/1 17/2/1 24/2/1
f 27/2/1 21/2/1 20/2/1
f 28/3/1 22/3/1 21/3/1
f 28/2/1 21/2/1 27/2/1
f 29/3/1 22/3/1 28/3/1
f 31/1/1 27/1/1 26/1/1
f 32/1/1 27/1/1 31/1/1
f 33/2/1 30/2/1 29/2/1
f 33/2/1 29/2/1 28/2/1
f 34/2/1 30/2/1 33/2/1
f 39/2/1 36/2/1 35/2/1
f 39/2/1 38/2/1 37/2/1
f 39/2/1 37/2/1 36/2/1
f 40/2/1 38/2/1 39/2/1
f 43/2/1 42/2/1 41/2/1
f 44/2/1 42/2/1 43/2/1
f 45/2/1 42/2/1 44/2/1
f 47/3/1 45/3/1 44/3/1
f 48/2/1 42/2/1 45/2/1
f 48/3/1 45/3/1 47/3/1
f 49/2/1 47/2/1 46/2/1
f 49/2/1 48/2/1 47/2/1
f 50/2/1 42/2/1 48/2/1
f 50/2/1 48/2/1 49/2/1
f 55/3/1 52/3/1 51/3/1
f 56/3/1 52/3/1 55/3/1
f 57/3/1 54/3/1 53/3/1
f 58/3/1 54/3/1 57/3/1
f 62/3/1 60/3/1 59/3/1
f 62/3/1 61/3/1 60/3/1
f 63/3/1 61/3/1 62/3/1
f 66/3/1 65/3/1 64/3/1
f 67/3/1 65/3/1 66/3/1
f 70/2/1 69/2/1 68/2/1
f 71/2/1 69/2/1 70/2/1
f 76/3/1 73/3/1 72/3/1
f 77/2/1 74/2/1 73/2/1
f 77/3/1 73/3/1 76/3/1
f 78/3/1 75/3/1 74/3/1
f 78/2/1 74/2/1 77/2/1
f 79/3/1 75/3/1 78/3/1
f 80/2/1 77/2/1 76/2/1
f 81/2/1 77/2/1 80/2/1
f 84/2/1 83/2/1 82/2/1
f 85/2/1 83/2/1 84/2/1
f 88/2/1 87/2/1 86/2/1
f 89/2/1 87/2/1 88/2/1
f 90/2/2 91/2/2 92/2/2
f 92/2/2 91/2/2 93/2/2
f 94/2/2 95/2/2 96/2/2
f 96/2/2 95/2/2 97/2/2
f 98/3/2 99/3/2 102/3/2
f 99/2/2 100/2/2 103/2/2
f 102/3/2 99/3/2 103/3/2
f 100/3/2 101/3/2 104/3/2
f 103/2/2 100/2/2 104/2/2
f 104/3/2 101/3/2 105/3/2
f 102/2/2 103/2/2 106/2/2
f 106/2/2 103/2/2 107/2/2
f 108/3/2 109/3/2 112/3/2
f 112/3/2 109/3/2 113/3/2
f 110/3/2 111/3/2 114/3/2
f 114/3/2 111/3/2 115/3/2
f 116/3/2 117/3/2 118/3/2
f 118/3/2 117/3/2 119/3/2
f 119/3/2 117/3/2 120/3/2
f 120/3/2 117/3/2 121/3/2
f 122/3/2 123/3/2 125/3/2
f 123/3/2 124/3/2 125/3/2
f 125/3/2 124/3/2 126/3/2
f 127/2/2 128/2/2 129/2/2
f 129/2/2 128/2/2 130/2/2
f 131/3/2 132/3/2 136/3/2
f 132/2/2 133/2/2 137/2/2
f 136/3/2 132/3/2 137/3/2
f 137/2/2 133/2/2 138/2/2
f 134/2/2 135/2/2 139/2/2
f 139/2/2 135/2/2 140/2/2
f 140/2/2 135/2/2 141/2/2
f 141/2/2 135/2/2 142/2/2
f 136/2/2 137/2/2 143/2/2
f 143/2/2 137/2/2 144/2/2
f 140/3/2 141/3/2 146/3/2
f 146/3/2 141/3/2 147/3/2
f 147/3/2 141/3/2 148/3/2
f 145/2/2 146/2/2 150/2/2
f 150/2/2 146/2/2 151/2/2
f 148/2/2 149/2/2 152/2/2
f 147/2/2 148/2/2 152/2/2
f 152/2/2 149/2/2 153/2/2
f 154/2/2 155/2/2 158/2/2
f 155/1/2 156/1/2 159/1/2
f 158/2/2 155/2/2 159/2/2
f 156/2/2 157/2/2 160/2/2
f 159/1/2 156/1/2 160/1/2
f 160/2/2 157/2/2 161/2/2
f 162/1/2 163/1/2 165/1/2
f 163/2/2 164/2/2 166/2/2
f 165/1/2 163/1/2 166/1/2
f 166/2/2 164/2/2 167/2/2
f 166/3/2 167/3/2 169/3/2
f 167/2/2 164/2/2 170/2/2
f 169/3/2 167/3/2 170/3/2
f 168/2/2 169/2/2 171/2/2
f 169/1/2 170/1/2 172/1/2
f 171/2/2 169/2/2 172/2/2
f 170/2/2 164/2/2 173/2/2
f 172/1/2 170/1/2 173/1/2
f 173/2/2 164/2/2 174/2/2
f 175/2/2 176/2/2 177/2/2
f 177/2/2 176/2/2 178/2/2
f 178/2/2 179/2/2 180/2/2
f 180/2/2 179/2/2 181/2/2
f 181/2/2 182/2/2 183/2/2
f 183/2/2 182/2/2 184/2/2
f 188/3/3 186/3/3 185/3/3
f 189/2/3 187/2/3 186/2/3
f 189/3/3 186/3/3 188/3/3
f 190/2/3 187/2/3 189/2/3
f 194/3/3 192/3/3 191/3/3
f 195/2/3 193/2/3 192/2/3
f 195/3/3 192/3/3 194/3/3
f 196/2/3 193/2/3 195/2/3
f 199/2/3 198/2/3 197/2/3
f 200/2/3 198/2/3 199/2/3
f 203/2/3 202/2/3 201/2/3
f 204/2/3 202/2/3 203/2/3
f 207/2/3 206/2/3 205/2/3
f 208/2/3 206/2/3 207/2/3
f 218/1/3 209/1/3 208/1/3
f 219/1/3 209/1/3 218/1/3
f 220/2/3 211/2/3 210/2/3
f 221/2/3 213/2/3 212/2/3
f 222/2/3 215/2/3 214/2/3
f 223/2/3 217/2/3 216/2/3
f 224/3/3 218/3/3 217/3/3
f 224/2/3 217/2/3 223/2/3
f 225/2/3 219/2/3 218/2/3
f 225/3/3 218/3/3 224/3/3
f 226/3/3 220/3/3 219/3/3
f 226/2/3 219/2/3 225/2/3
f 227/2/3 211/2/3 220/2/3
f 227/3/3 220/3/3 226/3/3
f 228/2/3 221/2/3 212/2/3
f 228/2/3 222/2/3 221/2/3
f 229/2/3 222/2/3 228/2/3
f 230/2/3 215/2/3 222/2/3
f 230/2/3 222/2/3 229/2/3
f 232/2/3 226/2/3 225/2/3
f 233/2/3 226/2/3 232/2/3
f 234/2/3 211/2/3 227/2/3
f 235/2/3 211/2/3 234/2/3
f 236/1/3 229/1/3 228/1/3
f 237/1/3 229/1/3 236/1/3
f 238/2/3 215/2/3 230/2/3
f 239/2/3 215/2/3 238/2/3
f 240/2/3 232/2/3 231/2/3
f 241/2/3 232/2/3 240/2/3
f 245/2/3 243/2/3 242/2/3
f 246/2/3 243/2/3 245/2/3
f 247/2/3 243/2/3 246/2/3
f 250/2/3 245/2/3 244/2/3
f 251/2/3 245/2/3 250/2/3
f 254/3/3 249/3/3 248/3/3
f 255/3/3 249/3/3 254/3/3
f 258/3/3 253/3/3 252/3/3
f 259/3/3 253/3/3 258/3/3
f 262/3/3 257/3/3 256/3/3
f 263/3/3 257/3/3 262/3/3
f 266/3/3 261/3/3 260/3/3
f 267/3/3 261/3/3 266/3/3
f 268/2/3 265/2/3 264/2/3
f 268/2/3 264/2/3 263/2/3
f 269/2/3 265/2/3 268/2/3
f 270/2/4 271/2/4 272/2/4
f 272/2/4 271/2/4 273/2/4
f 274/2/4 275/2/4 276/2/4
f 276/2/4 275/2/4 277/2/4
f 278/2/4 279/2/4 280/2/4
f 280/2/4 279/2/4 281/2/4
f 282/2/4 283/2/4 284/2/4
f 284/2/4 283/2/4 285/2/4
f 286/2/4 287/2/4 288/2/4
f 288/2/4 287/2/4 289/2/4
f 290/2/4 291/2/4 292/2/4
f 292/2/4 291/2/4 293/2/4
f 294/2/4 295/2/4 296/2/4
f 296/2/4 295/2/4 297/2/4
f 297/2/4 295/2/4 298/2/4
f 299/2/4 300/2/4 302/2/4
f 300/2/4 301/2/4 302/2/4
f 302/2/4 301/2/4 303/2/4
f 304/3/4 305/3/4 306/3/4
f 306/3/4 305/3/4 307/3/4
f 308/3/4 309/3/4 312/3/4
f 312/3/4 309/3/4 313/3/4
f 310/3/4 311/3/4 314/3/4
f 314/3/4 311/3/4 315/3/4
f 316/2/4 317/2/4 324/2/4
f 318/2/4 319/2/4 325/2/4
f 325/2/4 319/2/4 326/2/4
f 320/2/4 321/2/4 327/2/4
f 316/2/4 324/2/4 328/2/4
f 324/3/4 325/3/4 328/3/4
f 325/2/4 326/2/4 329/2/4
f 328/3/4 325/3/4 329/3/4
f 326/3/4 327/3/4 330/3/4
f 329/2/4 326/2/4 330/2/4
f 327/2/4 321/2/4 331/2/4
f 330/3/4 327/3/4 331/3/4
f 316/2/4 328/2/4 332/2/4
f 332/2/4 328/2/4 333/2/4
f 329/2/4 330/2/4 334/2/4
f 334/2/4 330/2/4 335/2/4
f 331/2/4 321/2/4 336/2/4
f 336/2/4 321/2/4 337/2/4
f 322/2/4 323/2/4 338/2/4
f 338/2/4 323/2/4 339/2/4
f 344/3/5 341/3/5 340/3/5
f 345/3/5 341/3/5 344/3/5
f 346/3/5 343/3/5 342/3/5
f 347/3/5 343/3/5 346/3/5
f 349/2/5 345/2/5 344/2/5
f 350/2/5 345/2/5 349/2/5
f 351/2/5 347/2/5 346/2/5
f 352/2/5 347/2/5 351/2/5
f 354/2/5 349/2/5 348/2/5
f 355/3/5 350/3/5 349/3/5
f 355/2/5 349/2/5 354/2/5
f 356/3/5 350/3/5 355/3/5
f 357/3/5 352/3/5 351/3/5
f 358/2/5 353/2/5 352/2/5
f 358/3/5 352/3/5 357/3/5
f 359/2/5 353/2/5 358/2/5
f 360/2/5 356/2/5 355/2/5
f 360/2/5 357/2/5 356/2/5
f 360/2/5 358/2/5 357/2/5
f 361/2/5 358/2/5 360/2/5
f 366/2/5 363/2/5 362/2/5
f 367/2/5 363/2/5 366/2/5
f 368/2/5 365/2/5 364/2/5
f 369/2/5 365/2/5 368/2/5
f 375/1/5 371/1/5 370/1/5
f 376/1/5 371/1/5 375/1/5
f 377/2/5 373/2/5 372/2/5
f 378/2/5 373/2/5 377/2/5
f 380/2/5 375/2/5 374/2/5
f 381/2/5 375/2/5 380/2/5
f 382/2/5 379/2/5 378/2/5
f 383/2/5 379/2/5 382/2/5
f 388/2/5 385/2/5 384/2/5
f 389/2/5 385/2/5 388/2/5
f 390/2/5 387/2/5 386/2/5
f 391/2/5 387/2/5 390/2/5
f 396/2/5 393/2/5 392/2/5
f 397/2/5 395/2/5 394/2/5
f 398/2/5 395/2/5 397/2/5
f 399/2/5 393/2/5 396/2/5
f 400/1/5 398/1/5 397/1/5
f 401/1/5 398/1/5 400/1/5
f 402/2/5 393/2/5 399/2/5
f 403/2/5 393/2/5 402/2/5
f 404/2/5 401/2/5 400/2/5
f 405/2/5 401/2/5 404/2/5
f 409/2/5 407/2/5 406/2/5
f 410/1/5 408/1/5 407/1/5
f 410/2/5 407/2/5 409/2/5
f 411/1/5 408/1/5 410/1/5
f 412/2/5 409/2/5 406/2/5
f 413/2/5 411/2/5 410/2/5
f 414/2/5 412/2/5 406/2/5
f 414/2/5 413/2/5 412/2/5
f 415/2/5 411/2/5 413/2/5
f 415/2/5 413/2/5 414/2/5
f 420/2/5 417/2/5 416/2/5
f 421/2/5 417/2/5 420/2/5
f 422/2/5 419/2/5 418/2/5
f 423/2/5 419/2/5 422/2/5
f 424/2/6 425/2/6 429/2/6
f 429/2/6 425/2/6 430/2/6
f 426/2/6 427/2/6 431/2/6
f 431/2/6 427/2/6 432/2/6
f 428/2/6 429/2/6 434/2/6
f 429/3/6 430/3/6 435/3/6
f 434/2/6 429/2/6 435/2/6
f 435/3/6 430/3/6 436/3/6
f 431/3/6 432/3/6 437/3/6
f 432/2/6 433/2/6 438/2/6
f 437/3/6 432/3/6 438/3/6
f 438/2/6 433/2/6 439/2/6
f 435/2/6 436/2/6 440/2/6
f 440/2/6 436/2/6 441/2/6
f 437/2/6 438/2/6 442/2/6
f 442/2/6 438/2/6 443/2/6
f 444/2/6 445/2/6 448/2/6
f 448/2/6 445/2/6 449/2/6
f 446/2/6 447/2/6 450/2/6
f 450/2/6 447/2/6 451/2/6
f 452/2/6 453/2/6 456/2/6
f 456/2/6 453/2/6 457/2/6
f 454/2/6 455/2/6 458/2/6
f 458/2/6 455/2/6 459/2/6
f 460/2/6 461/2/6 464/2/6
f 464/2/6 461/2/6 465/2/6
f 462/2/6 463/2/6 466/2/6
f 466/2/6 463/2/6 467/2/6
f 468/1/6 469/1/6 472/1/6
f 472/1/6 469/1/6 473/1/6
f 470/2/6 471/2/6 474/2/6
f 472/2/6 473/2/6 475/2/6
f 470/2/6 474/2/6 476/2/6
f 475/2/6 473/2/6 477/2/6
f 477/2/6 473/2/6 478/2/6
f 470/2/6 476/2/6 479/2/6
f 479/2/6 476/2/6 480/2/6
f 481/2/6 482/2/6 485/2/6
f 485/2/6 482/2/6 486/2/6
f 483/2/6 484/2/6 487/2/6
f 487/2/6 484/2/6 488/2/6
f 489/2/6 490/2/6 491/2/6
f 491/2/6 490/2/6 492/2/6
f 492/2/6 490/2/6 493/2/6
f 492/1/6 493/1/6 494/1/6
f 494/1/6 493/1/6 495/1/6
f 489/2/6 491/2/6 496/2/6
f 494/2/6 495/2/6 497/2/6
f 489/2/6 496/2/6 498/2/6
f 496/2/6 497/2/6 498/2/6
f 497/2/6 495/2/6 499/2/6
f 498/2/6 497/2/6 499/2/6
f 500/2/6 501/2/6 504/2/6
f 504/2/6 501/2/6 505/2/6
f 502/1/6 503/1/6 506/1/6
f 506/1/6 503/1/6 507/1/6
f 508/2/6 509/2/6 510/2/6
f 510/2/6 509/2/6 511/2/6
f 508/2/6 510/2/6 512/2/6
f 510/1/6 511/1/6 512/1/6
f 512/1/6 511/1/6 513/1/6
f 508/2/6 512/2/6 514/2/6
f 512/2/6 513/2/6 514/2/6
f 514/2/6 513/2/6 515/2/6
