# MagicaVoxel @ Ephtracy

# material
mtllib dutch-dying-01.mtl
usemtl palette

# normals
vn -1 0 0
vn 1 0 0
vn 0 0 1
vn 0 0 -1
vn 0 -1 0
vn 0 1 0

# texcoords
vt 0.0292969 0.5
vt 0.0332031 0.5
vt 0.201172 0.5
vt 0.369141 0.5
vt 0.634766 0.5
vt 0.654297 0.5
vt 0.677734 0.5
vt 0.791016 0.5
vt 0.849609 0.5
vt 0.853516 0.5
vt 0.857422 0.5
vt 0.904297 0.5
vt 0.916016 0.5
vt 0.994141 0.5

# verts
v -3 2 -0.5
v -3 2 -1.5
v -3 5 -0.5
v -3 5 -1.5
v -3 7 -0.5
v -3 7 -1.5
v -3 8 -0.5
v -3 8 -1.5
v -2 0 -0.5
v -2 0 -1.5
v -2 0 -2.5
v -2 1 -1.5
v -2 1 -2.5
v -2 2 0.5
v -2 2 -0.5
v -2 2 -1.5
v -2 2 -2.5
v -2 3 0.5
v -2 3 -0.5
v -2 3 -1.5
v -2 3 -2.5
v -2 4 0.5
v -2 4 -0.5
v -2 5 0.5
v -2 5 -0.5
v -2 5 -1.5
v -2 6 0.5
v -2 6 -1.5
v -2 6 -2.5
v -2 7 0.5
v -2 7 -0.5
v -2 7 -1.5
v -2 8 0.5
v -2 8 -0.5
v -2 8 -1.5
v -2 9 0.5
v -2 9 -0.5
v -2 9 -2.5
v -2 10 0.5
v -2 10 -2.5
v 1 0 -0.5
v 1 0 -1.5
v 1 0 -2.5
v 1 1 -0.5
v 1 1 -1.5
v 1 1 -2.5
v -1 0 -0.5
v -1 0 -1.5
v -1 0 -2.5
v -1 1 -0.5
v -1 1 -1.5
v -1 1 -2.5
v 2 0 -0.5
v 2 0 -1.5
v 2 0 -2.5
v 2 1 -0.5
v 2 1 -1.5
v 2 1 -2.5
v 2 2 0.5
v 2 2 -0.5
v 2 2 -1.5
v 2 2 -2.5
v 2 3 0.5
v 2 3 -0.5
v 2 3 -1.5
v 2 3 -2.5
v 2 4 0.5
v 2 4 -0.5
v 2 5 0.5
v 2 5 -0.5
v 2 5 -1.5
v 2 6 0.5
v 2 6 -0.5
v 2 6 -2.5
v 2 7 0.5
v 2 7 -0.5
v 2 7 -1.5
v 2 8 0.5
v 2 8 -0.5
v 2 8 -1.5
v 2 9 0.5
v 2 9 -0.5
v 2 9 -2.5
v 2 10 0.5
v 2 10 -2.5
v 3 2 -0.5
v 3 2 -1.5
v 3 5 -0.5
v 3 5 -1.5
v 3 7 -0.5
v 3 7 -1.5
v 3 8 -0.5
v 3 8 -1.5
v -2 2 0.5
v -2 3 0.5
v -2 4 0.5
v -2 5 0.5
v -2 6 0.5
v -2 7 0.5
v -2 8 0.5
v -2 9 0.5
v -2 10 0.5
v -1 2 0.5
v -1 3 0.5
v -1 4 0.5
v -1 5 0.5
v -1 6 0.5
v -1 7 0.5
v -1 8 0.5
v 0 2 0.5
v 0 3 0.5
v 0 4 0.5
v 1 2 0.5
v 1 3 0.5
v 1 4 0.5
v 1 5 0.5
v 1 6 0.5
v 1 7 0.5
v 1 8 0.5
v 1 9 0.5
v 1 10 0.5
v 2 2 0.5
v 2 3 0.5
v 2 4 0.5
v 2 5 0.5
v 2 6 0.5
v 2 7 0.5
v 2 8 0.5
v 2 9 0.5
v 2 10 0.5
v -3 2 -0.5
v -3 5 -0.5
v -3 7 -0.5
v -3 8 -0.5
v -2 0 -0.5
v -2 2 -0.5
v -2 3 -0.5
v -2 4 -0.5
v -2 5 -0.5
v -2 7 -0.5
v -2 8 -0.5
v -1 0 -0.5
v -1 1 -0.5
v -1 2 -0.5
v 0 2 -0.5
v 1 0 -0.5
v 1 1 -0.5
v 1 2 -0.5
v 2 0 -0.5
v 2 1 -0.5
v 2 2 -0.5
v 2 3 -0.5
v 2 4 -0.5
v 2 5 -0.5
v 2 7 -0.5
v 2 8 -0.5
v 3 2 -0.5
v 3 5 -0.5
v 3 7 -0.5
v 3 8 -0.5
v -3 2 -1.5
v -3 5 -1.5
v -3 7 -1.5
v -3 8 -1.5
v -2 1 -1.5
v -2 2 -1.5
v -2 3 -1.5
v -2 5 -1.5
v -2 7 -1.5
v -2 8 -1.5
v -1 1 -1.5
v -1 2 -1.5
v 0 2 -1.5
v 1 1 -1.5
v 1 2 -1.5
v 2 1 -1.5
v 2 2 -1.5
v 2 3 -1.5
v 2 5 -1.5
v 2 7 -1.5
v 2 8 -1.5
v 3 2 -1.5
v 3 5 -1.5
v 3 7 -1.5
v 3 8 -1.5
v -2 0 -2.5
v -2 1 -2.5
v -2 2 -2.5
v -2 3 -2.5
v -2 6 -2.5
v -2 9 -2.5
v -2 10 -2.5
v -1 0 -2.5
v -1 1 -2.5
v -1 2 -2.5
v -1 3 -2.5
v -1 5 -2.5
v -1 6 -2.5
v 0 2 -2.5
v 0 3 -2.5
v 0 4 -2.5
v 0 5 -2.5
v 1 0 -2.5
v 1 1 -2.5
v 1 2 -2.5
v 1 3 -2.5
v 1 4 -2.5
v 1 5 -2.5
v 1 6 -2.5
v 1 9 -2.5
v 1 10 -2.5
v 2 0 -2.5
v 2 1 -2.5
v 2 2 -2.5
v 2 3 -2.5
v 2 6 -2.5
v 2 9 -2.5
v 2 10 -2.5
v -2 0 -0.5
v -1 0 -0.5
v 1 0 -0.5
v 2 0 -0.5
v -2 0 -1.5
v -1 0 -1.5
v 1 0 -1.5
v 2 0 -1.5
v -2 0 -2.5
v -1 0 -2.5
v 1 0 -2.5
v 2 0 -2.5
v -1 1 -0.5
v 1 1 -0.5
v -1 1 -1.5
v 1 1 -1.5
v -2 2 0.5
v -1 2 0.5
v 0 2 0.5
v 1 2 0.5
v 2 2 0.5
v -3 2 -0.5
v -2 2 -0.5
v -1 2 -0.5
v 0 2 -0.5
v 1 2 -0.5
v 2 2 -0.5
v 3 2 -0.5
v -3 2 -1.5
v -2 2 -1.5
v -1 2 -1.5
v 0 2 -1.5
v 1 2 -1.5
v 2 2 -1.5
v 3 2 -1.5
v -2 2 -2.5
v -1 2 -2.5
v 0 2 -2.5
v 1 2 -2.5
v 2 2 -2.5
v -3 7 -0.5
v -2 7 -0.5
v 2 7 -0.5
v 3 7 -0.5
v -3 7 -1.5
v -2 7 -1.5
v 2 7 -1.5
v 3 7 -1.5
v -2 1 -1.5
v -1 1 -1.5
v 1 1 -1.5
v 2 1 -1.5
v -2 1 -2.5
v -1 1 -2.5
v 1 1 -2.5
v 2 1 -2.5
v -3 5 -0.5
v -2 5 -0.5
v 2 5 -0.5
v 3 5 -0.5
v -3 5 -1.5
v -2 5 -1.5
v 2 5 -1.5
v 3 5 -1.5
v -3 8 -0.5
v -2 8 -0.5
v 2 8 -0.5
v 3 8 -0.5
v -3 8 -1.5
v -2 8 -1.5
v 2 8 -1.5
v 3 8 -1.5
v -2 10 0.5
v 1 10 0.5
v 2 10 0.5
v -2 10 -2.5
v 1 10 -2.5
v 2 10 -2.5

# faces
f 3/2/1 2/2/1 1/2/1
f 4/2/1 2/2/1 3/2/1
f 7/2/1 6/2/1 5/2/1
f 8/2/1 6/2/1 7/2/1
f 12/6/1 10/6/1 9/6/1
f 12/13/1 11/13/1 10/13/1
f 13/13/1 11/13/1 12/13/1
f 15/6/1 12/6/1 9/6/1
f 16/6/1 12/6/1 15/6/1
f 18/12/1 15/12/1 14/12/1
f 19/12/1 15/12/1 18/12/1
f 20/6/1 17/6/1 16/6/1
f 21/6/1 17/6/1 20/6/1
f 22/13/1 19/13/1 18/13/1
f 23/13/1 19/13/1 22/13/1
f 24/8/1 23/8/1 22/8/1
f 25/8/1 23/8/1 24/8/1
f 26/13/1 21/13/1 20/13/1
f 27/13/1 25/13/1 24/13/1
f 27/13/1 26/13/1 25/13/1
f 28/13/1 21/13/1 26/13/1
f 28/13/1 26/13/1 27/13/1
f 29/13/1 21/13/1 28/13/1
f 30/1/1 28/1/1 27/1/1
f 31/1/1 28/1/1 30/1/1
f 32/2/1 29/2/1 28/2/1
f 32/1/1 28/1/1 31/1/1
f 33/14/1 31/14/1 30/14/1
f 34/14/1 31/14/1 33/14/1
f 35/2/1 29/2/1 32/2/1
f 36/10/1 34/10/1 33/10/1
f 37/2/1 35/2/1 34/2/1
f 37/10/1 34/10/1 36/10/1
f 38/2/1 29/2/1 35/2/1
f 38/2/1 35/2/1 37/2/1
f 39/4/1 37/4/1 36/4/1
f 39/4/1 38/4/1 37/4/1
f 40/4/1 38/4/1 39/4/1
f 44/6/1 42/6/1 41/6/1
f 45/13/1 43/13/1 42/13/1
f 45/6/1 42/6/1 44/6/1
f 46/13/1 43/13/1 45/13/1
f 47/6/2 48/6/2 50/6/2
f 48/13/2 49/13/2 51/13/2
f 50/6/2 48/6/2 51/6/2
f 51/13/2 49/13/2 52/13/2
f 53/6/2 54/6/2 56/6/2
f 54/13/2 55/13/2 57/13/2
f 56/6/2 54/6/2 57/6/2
f 57/13/2 55/13/2 58/13/2
f 56/12/2 57/12/2 60/12/2
f 60/12/2 57/12/2 61/12/2
f 59/6/2 60/6/2 63/6/2
f 63/6/2 60/6/2 64/6/2
f 61/12/2 62/12/2 65/12/2
f 65/12/2 62/12/2 66/12/2
f 63/13/2 64/13/2 67/13/2
f 67/13/2 64/13/2 68/13/2
f 67/8/2 68/8/2 69/8/2
f 69/8/2 68/8/2 70/8/2
f 65/13/2 66/13/2 71/13/2
f 69/13/2 70/13/2 72/13/2
f 70/13/2 71/13/2 72/13/2
f 72/13/2 71/13/2 73/13/2
f 71/13/2 66/13/2 74/13/2
f 73/13/2 71/13/2 74/13/2
f 72/1/2 73/1/2 75/1/2
f 73/2/2 74/2/2 76/2/2
f 75/1/2 73/1/2 76/1/2
f 76/2/2 74/2/2 77/2/2
f 75/14/2 76/14/2 78/14/2
f 78/14/2 76/14/2 79/14/2
f 77/2/2 74/2/2 80/2/2
f 78/10/2 79/10/2 81/10/2
f 79/2/2 80/2/2 82/2/2
f 81/10/2 79/10/2 82/10/2
f 80/2/2 74/2/2 83/2/2
f 82/2/2 80/2/2 83/2/2
f 81/3/2 82/3/2 84/3/2
f 82/3/2 83/3/2 84/3/2
f 84/3/2 83/3/2 85/3/2
f 86/2/2 87/2/2 88/2/2
f 88/2/2 87/2/2 89/2/2
f 90/2/2 91/2/2 92/2/2
f 92/2/2 91/2/2 93/2/2
f 103/12/3 95/12/3 94/12/3
f 104/13/3 96/13/3 95/13/3
f 104/12/3 95/12/3 103/12/3
f 105/8/3 97/8/3 96/8/3
f 105/13/3 96/13/3 104/13/3
f 106/13/3 98/13/3 97/13/3
f 106/8/3 97/8/3 105/8/3
f 107/1/3 99/1/3 98/1/3
f 107/13/3 98/13/3 106/13/3
f 108/14/3 100/14/3 99/14/3
f 108/1/3 99/1/3 107/1/3
f 109/10/3 101/10/3 100/10/3
f 109/14/3 100/14/3 108/14/3
f 110/11/3 104/11/3 103/11/3
f 111/9/3 105/9/3 104/9/3
f 111/11/3 104/11/3 110/11/3
f 112/8/3 106/8/3 105/8/3
f 112/9/3 105/9/3 111/9/3
f 113/10/3 111/10/3 110/10/3
f 113/10/3 112/10/3 111/10/3
f 114/10/3 112/10/3 113/10/3
f 115/8/3 106/8/3 112/8/3
f 115/10/3 112/10/3 114/10/3
f 116/10/3 107/10/3 106/10/3
f 116/8/3 106/8/3 115/8/3
f 117/1/3 108/1/3 107/1/3
f 117/10/3 107/10/3 116/10/3
f 118/10/3 109/10/3 108/10/3
f 118/1/3 108/1/3 117/1/3
f 119/10/3 101/10/3 109/10/3
f 119/10/3 109/10/3 118/10/3
f 120/4/3 102/4/3 101/4/3
f 120/10/3 101/10/3 119/10/3
f 121/4/3 102/4/3 120/4/3
f 122/6/3 114/6/3 113/6/3
f 123/13/3 115/13/3 114/13/3
f 123/6/3 114/6/3 122/6/3
f 124/8/3 116/8/3 115/8/3
f 124/13/3 115/13/3 123/13/3
f 125/13/3 117/13/3 116/13/3
f 125/8/3 116/8/3 124/8/3
f 126/1/3 118/1/3 117/1/3
f 126/13/3 117/13/3 125/13/3
f 127/14/3 119/14/3 118/14/3
f 127/1/3 118/1/3 126/1/3
f 128/10/3 120/10/3 119/10/3
f 128/14/3 119/14/3 127/14/3
f 129/3/3 121/3/3 120/3/3
f 129/10/3 120/10/3 128/10/3
f 130/3/3 121/3/3 129/3/3
f 136/2/3 132/2/3 131/2/3
f 137/2/3 132/2/3 136/2/3
f 138/2/3 132/2/3 137/2/3
f 139/2/3 132/2/3 138/2/3
f 140/2/3 134/2/3 133/2/3
f 141/2/3 134/2/3 140/2/3
f 142/6/3 136/6/3 135/6/3
f 143/6/3 136/6/3 142/6/3
f 144/6/3 136/6/3 143/6/3
f 145/12/3 144/12/3 143/12/3
f 147/12/3 145/12/3 143/12/3
f 148/12/3 145/12/3 147/12/3
f 149/6/3 147/6/3 146/6/3
f 150/12/3 148/12/3 147/12/3
f 150/6/3 147/6/3 149/6/3
f 151/12/3 148/12/3 150/12/3
f 157/2/3 154/2/3 153/2/3
f 157/2/3 153/2/3 152/2/3
f 157/2/3 152/2/3 151/2/3
f 158/2/3 154/2/3 157/2/3
f 159/2/3 156/2/3 155/2/3
f 160/2/3 156/2/3 159/2/3
f 161/2/4 162/2/4 166/2/4
f 166/2/4 162/2/4 167/2/4
f 167/2/4 162/2/4 168/2/4
f 163/2/4 164/2/4 169/2/4
f 169/2/4 164/2/4 170/2/4
f 165/6/4 166/6/4 171/6/4
f 171/6/4 166/6/4 172/6/4
f 171/12/4 172/12/4 173/12/4
f 171/12/4 173/12/4 174/12/4
f 174/12/4 173/12/4 175/12/4
f 174/12/4 175/12/4 176/12/4
f 176/12/4 175/12/4 177/12/4
f 177/2/4 178/2/4 182/2/4
f 178/2/4 179/2/4 182/2/4
f 182/2/4 179/2/4 183/2/4
f 180/2/4 181/2/4 184/2/4
f 184/2/4 181/2/4 185/2/4
f 186/13/4 187/13/4 193/13/4
f 193/13/4 187/13/4 194/13/4
f 188/6/4 189/6/4 195/6/4
f 189/13/4 190/13/4 196/13/4
f 195/6/4 189/6/4 196/6/4
f 196/13/4 190/13/4 197/13/4
f 190/2/4 191/2/4 198/2/4
f 197/13/4 190/13/4 198/13/4
f 195/12/4 196/12/4 199/12/4
f 196/7/4 197/7/4 200/7/4
f 199/12/4 196/12/4 200/12/4
f 200/7/4 197/7/4 201/7/4
f 197/2/4 198/2/4 202/2/4
f 201/7/4 197/7/4 202/7/4
f 199/6/4 200/6/4 205/6/4
f 200/7/4 201/7/4 206/7/4
f 205/6/4 200/6/4 206/6/4
f 201/6/4 202/6/4 207/6/4
f 206/7/4 201/7/4 207/7/4
f 202/2/4 198/2/4 208/2/4
f 207/6/4 202/6/4 208/6/4
f 198/2/4 191/2/4 209/2/4
f 208/2/4 198/2/4 209/2/4
f 191/4/4 192/4/4 210/4/4
f 209/2/4 191/2/4 210/2/4
f 210/4/4 192/4/4 211/4/4
f 203/13/4 204/13/4 212/13/4
f 212/13/4 204/13/4 213/13/4
f 205/12/4 206/12/4 214/12/4
f 208/13/4 209/13/4 215/13/4
f 214/12/4 206/12/4 215/12/4
f 207/13/4 208/13/4 215/13/4
f 206/13/4 207/13/4 215/13/4
f 209/2/4 210/2/4 216/2/4
f 215/13/4 209/13/4 216/13/4
f 210/3/4 211/3/4 217/3/4
f 216/2/4 210/2/4 217/2/4
f 217/3/4 211/3/4 218/3/4
f 223/6/5 220/6/5 219/6/5
f 224/6/5 220/6/5 223/6/5
f 225/6/5 222/6/5 221/6/5
f 226/6/5 222/6/5 225/6/5
f 227/13/5 224/13/5 223/13/5
f 228/13/5 224/13/5 227/13/5
f 229/13/5 226/13/5 225/13/5
f 230/13/5 226/13/5 229/13/5
f 233/12/5 232/12/5 231/12/5
f 234/12/5 232/12/5 233/12/5
f 241/12/5 236/12/5 235/12/5
f 242/11/5 237/11/5 236/11/5
f 242/12/5 236/12/5 241/12/5
f 243/10/5 238/10/5 237/10/5
f 243/11/5 237/11/5 242/11/5
f 244/6/5 239/6/5 238/6/5
f 244/10/5 238/10/5 243/10/5
f 245/6/5 239/6/5 244/6/5
f 247/2/5 241/2/5 240/2/5
f 248/2/5 241/2/5 247/2/5
f 252/2/5 246/2/5 245/2/5
f 253/2/5 246/2/5 252/2/5
f 254/6/5 249/6/5 248/6/5
f 255/12/5 250/12/5 249/12/5
f 255/6/5 249/6/5 254/6/5
f 256/6/5 251/6/5 250/6/5
f 256/12/5 250/12/5 255/12/5
f 257/12/5 252/12/5 251/12/5
f 257/6/5 251/6/5 256/6/5
f 258/12/5 252/12/5 257/12/5
f 263/2/5 260/2/5 259/2/5
f 264/2/5 260/2/5 263/2/5
f 265/2/5 262/2/5 261/2/5
f 266/2/5 262/2/5 265/2/5
f 267/13/6 268/13/6 271/13/6
f 271/13/6 268/13/6 272/13/6
f 269/13/6 270/13/6 273/13/6
f 273/13/6 270/13/6 274/13/6
f 275/2/6 276/2/6 279/2/6
f 279/2/6 276/2/6 280/2/6
f 277/2/6 278/2/6 281/2/6
f 281/2/6 278/2/6 282/2/6
f 283/2/6 284/2/6 287/2/6
f 287/2/6 284/2/6 288/2/6
f 285/2/6 286/2/6 289/2/6
f 289/2/6 286/2/6 290/2/6
f 291/4/6 292/4/6 294/4/6
f 292/3/6 293/3/6 295/3/6
f 294/4/6 292/4/6 295/4/6
f 295/3/6 293/3/6 296/3/6
