# MagicaVoxel @ Ephtracy

# material
mtllib dutch-dying-00.mtl
usemtl palette

# normals
vn -1 0 0
vn 1 0 0
vn 0 0 1
vn 0 0 -1
vn 0 -1 0
vn 0 1 0

# texcoords
vt 0.0292969 0.5
vt 0.0332031 0.5
vt 0.201172 0.5
vt 0.369141 0.5
vt 0.634766 0.5
vt 0.654297 0.5
vt 0.677734 0.5
vt 0.763672 0.5
vt 0.791016 0.5
vt 0.904297 0.5
vt 0.916016 0.5
vt 0.994141 0.5

# verts
v -3 3 0.5
v -3 3 -0.5
v -3 6 0.5
v -3 6 -0.5
v -3 8 0.5
v -3 8 -0.5
v -3 9 0.5
v -3 9 -0.5
v -2 0 0.5
v -2 0 -0.5
v -2 1 0.5
v -2 1 -0.5
v -2 2 1.5
v -2 2 0.5
v -2 2 -0.5
v -2 2 -1.5
v -2 3 1.5
v -2 3 0.5
v -2 3 -0.5
v -2 3 -1.5
v -2 4 1.5
v -2 4 0.5
v -2 4 -0.5
v -2 4 -1.5
v -2 5 1.5
v -2 5 0.5
v -2 6 1.5
v -2 6 0.5
v -2 6 -0.5
v -2 7 1.5
v -2 7 -0.5
v -2 7 -1.5
v -2 8 1.5
v -2 8 0.5
v -2 8 -0.5
v -2 9 1.5
v -2 9 0.5
v -2 9 -0.5
v -2 10 1.5
v -2 10 -1.5
v -2 11 1.5
v -2 11 -1.5
v 1 0 0.5
v 1 0 -0.5
v 1 1 0.5
v 1 1 -0.5
v 1 2 0.5
v 1 2 -0.5
v -1 0 0.5
v -1 0 -0.5
v -1 1 0.5
v -1 1 -0.5
v -1 2 0.5
v -1 2 -0.5
v 2 0 0.5
v 2 0 -0.5
v 2 1 0.5
v 2 1 -0.5
v 2 2 1.5
v 2 2 0.5
v 2 2 -0.5
v 2 2 -1.5
v 2 3 1.5
v 2 3 0.5
v 2 3 -0.5
v 2 3 -1.5
v 2 4 1.5
v 2 4 0.5
v 2 4 -0.5
v 2 4 -1.5
v 2 5 1.5
v 2 5 0.5
v 2 6 1.5
v 2 6 0.5
v 2 6 -0.5
v 2 7 1.5
v 2 7 0.5
v 2 7 -1.5
v 2 8 1.5
v 2 8 0.5
v 2 8 -0.5
v 2 9 1.5
v 2 9 0.5
v 2 9 -0.5
v 2 10 1.5
v 2 10 -1.5
v 2 11 1.5
v 2 11 -1.5
v 3 3 0.5
v 3 3 -0.5
v 3 6 0.5
v 3 6 -0.5
v 3 8 0.5
v 3 8 -0.5
v 3 9 0.5
v 3 9 -0.5
v -2 2 1.5
v -2 3 1.5
v -2 4 1.5
v -2 5 1.5
v -2 6 1.5
v -2 7 1.5
v -2 8 1.5
v -2 9 1.5
v -2 10 1.5
v -2 11 1.5
v -1 2 1.5
v -1 3 1.5
v -1 4 1.5
v -1 5 1.5
v -1 6 1.5
v -1 7 1.5
v -1 8 1.5
v -1 9 1.5
v 0 2 1.5
v 0 3 1.5
v 0 4 1.5
v 0 5 1.5
v 1 2 1.5
v 1 3 1.5
v 1 4 1.5
v 1 5 1.5
v 1 6 1.5
v 1 7 1.5
v 1 8 1.5
v 1 9 1.5
v 1 10 1.5
v 1 11 1.5
v 2 2 1.5
v 2 3 1.5
v 2 4 1.5
v 2 5 1.5
v 2 6 1.5
v 2 7 1.5
v 2 8 1.5
v 2 9 1.5
v 2 10 1.5
v 2 11 1.5
v -3 3 0.5
v -3 6 0.5
v -3 8 0.5
v -3 9 0.5
v -2 0 0.5
v -2 1 0.5
v -2 2 0.5
v -2 3 0.5
v -2 4 0.5
v -2 5 0.5
v -2 6 0.5
v -2 8 0.5
v -2 9 0.5
v -1 0 0.5
v -1 1 0.5
v -1 2 0.5
v 1 0 0.5
v 1 1 0.5
v 1 2 0.5
v 2 0 0.5
v 2 1 0.5
v 2 2 0.5
v 2 3 0.5
v 2 4 0.5
v 2 5 0.5
v 2 6 0.5
v 2 8 0.5
v 2 9 0.5
v 3 3 0.5
v 3 6 0.5
v 3 8 0.5
v 3 9 0.5
v -3 3 -0.5
v -3 6 -0.5
v -3 8 -0.5
v -3 9 -0.5
v -2 0 -0.5
v -2 1 -0.5
v -2 2 -0.5
v -2 3 -0.5
v -2 4 -0.5
v -2 6 -0.5
v -2 8 -0.5
v -2 9 -0.5
v -1 0 -0.5
v -1 1 -0.5
v -1 2 -0.5
v 1 0 -0.5
v 1 1 -0.5
v 1 2 -0.5
v 2 0 -0.5
v 2 1 -0.5
v 2 2 -0.5
v 2 3 -0.5
v 2 4 -0.5
v 2 6 -0.5
v 2 8 -0.5
v 2 9 -0.5
v 3 3 -0.5
v 3 6 -0.5
v 3 8 -0.5
v 3 9 -0.5
v -2 2 -1.5
v -2 3 -1.5
v -2 4 -1.5
v -2 7 -1.5
v -2 10 -1.5
v -2 11 -1.5
v -1 2 -1.5
v -1 3 -1.5
v -1 4 -1.5
v -1 6 -1.5
v -1 7 -1.5
v 0 2 -1.5
v 0 3 -1.5
v 0 4 -1.5
v 0 5 -1.5
v 0 6 -1.5
v 1 2 -1.5
v 1 3 -1.5
v 1 4 -1.5
v 1 5 -1.5
v 1 6 -1.5
v 1 7 -1.5
v 1 10 -1.5
v 1 11 -1.5
v 2 2 -1.5
v 2 3 -1.5
v 2 4 -1.5
v 2 7 -1.5
v 2 10 -1.5
v 2 11 -1.5
v -2 0 0.5
v -1 0 0.5
v 1 0 0.5
v 2 0 0.5
v -2 0 -0.5
v -1 0 -0.5
v 1 0 -0.5
v 2 0 -0.5
v -2 2 1.5
v -1 2 1.5
v 0 2 1.5
v 1 2 1.5
v 2 2 1.5
v -2 2 0.5
v -1 2 0.5
v 0 2 0.5
v 1 2 0.5
v 2 2 0.5
v -2 2 -0.5
v -1 2 -0.5
v 0 2 -0.5
v 1 2 -0.5
v 2 2 -0.5
v -2 2 -1.5
v -1 2 -1.5
v 0 2 -1.5
v 1 2 -1.5
v 2 2 -1.5
v -3 3 0.5
v -2 3 0.5
v 2 3 0.5
v 3 3 0.5
v -3 3 -0.5
v -2 3 -0.5
v 2 3 -0.5
v 3 3 -0.5
v -3 8 0.5
v -2 8 0.5
v 2 8 0.5
v 3 8 0.5
v -3 8 -0.5
v -2 8 -0.5
v 2 8 -0.5
v 3 8 -0.5
v -3 6 0.5
v -2 6 0.5
v 2 6 0.5
v 3 6 0.5
v -3 6 -0.5
v -2 6 -0.5
v 2 6 -0.5
v 3 6 -0.5
v -3 9 0.5
v -2 9 0.5
v 2 9 0.5
v 3 9 0.5
v -3 9 -0.5
v -2 9 -0.5
v 2 9 -0.5
v 3 9 -0.5
v -2 11 1.5
v 1 11 1.5
v 2 11 1.5
v -2 11 -1.5
v 1 11 -1.5
v 2 11 -1.5

# faces
f 3/2/1 2/2/1 1/2/1
f 4/2/1 2/2/1 3/2/1
f 7/2/1 6/2/1 5/2/1
f 8/2/1 6/2/1 7/2/1
f 11/11/1 10/11/1 9/11/1
f 12/11/1 10/11/1 11/11/1
f 14/6/1 12/6/1 11/6/1
f 15/6/1 12/6/1 14/6/1
f 17/6/1 15/6/1 14/6/1
f 17/6/1 14/6/1 13/6/1
f 18/6/1 15/6/1 17/6/1
f 19/10/1 16/10/1 15/10/1
f 19/6/1 15/6/1 18/6/1
f 20/10/1 16/10/1 19/10/1
f 21/10/1 18/10/1 17/10/1
f 22/10/1 18/10/1 21/10/1
f 23/6/1 20/6/1 19/6/1
f 24/6/1 20/6/1 23/6/1
f 25/11/1 22/11/1 21/11/1
f 26/11/1 22/11/1 25/11/1
f 27/9/1 26/9/1 25/9/1
f 28/9/1 26/9/1 27/9/1
f 29/11/1 24/11/1 23/11/1
f 30/11/1 28/11/1 27/11/1
f 30/11/1 29/11/1 28/11/1
f 31/11/1 24/11/1 29/11/1
f 31/11/1 29/11/1 30/11/1
f 32/11/1 24/11/1 31/11/1
f 33/1/1 31/1/1 30/1/1
f 34/1/1 31/1/1 33/1/1
f 35/2/1 32/2/1 31/2/1
f 35/1/1 31/1/1 34/1/1
f 36/12/1 34/12/1 33/12/1
f 37/12/1 34/12/1 36/12/1
f 38/2/1 32/2/1 35/2/1
f 39/2/1 37/2/1 36/2/1
f 39/2/1 38/2/1 37/2/1
f 40/2/1 32/2/1 38/2/1
f 40/2/1 38/2/1 39/2/1
f 41/4/1 40/4/1 39/4/1
f 42/4/1 40/4/1 41/4/1
f 45/11/1 44/11/1 43/11/1
f 46/11/1 44/11/1 45/11/1
f 47/6/1 46/6/1 45/6/1
f 48/6/1 46/6/1 47/6/1
f 49/11/2 50/11/2 51/11/2
f 51/11/2 50/11/2 52/11/2
f 51/6/2 52/6/2 53/6/2
f 53/6/2 52/6/2 54/6/2
f 55/11/2 56/11/2 57/11/2
f 57/11/2 56/11/2 58/11/2
f 57/6/2 58/6/2 60/6/2
f 60/6/2 58/6/2 61/6/2
f 60/10/2 61/10/2 63/10/2
f 59/10/2 60/10/2 63/10/2
f 63/10/2 61/10/2 64/10/2
f 61/6/2 62/6/2 65/6/2
f 64/10/2 61/10/2 65/10/2
f 65/6/2 62/6/2 66/6/2
f 63/6/2 64/6/2 67/6/2
f 67/6/2 64/6/2 68/6/2
f 65/10/2 66/10/2 69/10/2
f 69/10/2 66/10/2 70/10/2
f 67/11/2 68/11/2 71/11/2
f 71/11/2 68/11/2 72/11/2
f 71/9/2 72/9/2 73/9/2
f 73/9/2 72/9/2 74/9/2
f 69/11/2 70/11/2 75/11/2
f 73/11/2 74/11/2 76/11/2
f 74/11/2 75/11/2 76/11/2
f 76/11/2 75/11/2 77/11/2
f 75/11/2 70/11/2 78/11/2
f 77/11/2 75/11/2 78/11/2
f 76/1/2 77/1/2 79/1/2
f 77/2/2 78/2/2 80/2/2
f 79/1/2 77/1/2 80/1/2
f 80/2/2 78/2/2 81/2/2
f 79/12/2 80/12/2 82/12/2
f 82/12/2 80/12/2 83/12/2
f 81/2/2 78/2/2 84/2/2
f 82/2/2 83/2/2 85/2/2
f 83/2/2 84/2/2 85/2/2
f 84/2/2 78/2/2 86/2/2
f 85/2/2 84/2/2 86/2/2
f 85/3/2 86/3/2 87/3/2
f 87/3/2 86/3/2 88/3/2
f 89/2/2 90/2/2 91/2/2
f 91/2/2 90/2/2 92/2/2
f 93/2/2 94/2/2 95/2/2
f 95/2/2 94/2/2 96/2/2
f 107/6/3 98/6/3 97/6/3
f 108/10/3 99/10/3 98/10/3
f 108/6/3 98/6/3 107/6/3
f 109/11/3 100/11/3 99/11/3
f 109/10/3 99/10/3 108/10/3
f 110/9/3 101/9/3 100/9/3
f 110/11/3 100/11/3 109/11/3
f 111/11/3 102/11/3 101/11/3
f 111/9/3 101/9/3 110/9/3
f 112/1/3 103/1/3 102/1/3
f 112/11/3 102/11/3 111/11/3
f 113/12/3 104/12/3 103/12/3
f 113/1/3 103/1/3 112/1/3
f 114/2/3 105/2/3 104/2/3
f 114/12/3 104/12/3 113/12/3
f 115/10/3 108/10/3 107/10/3
f 116/6/3 109/6/3 108/6/3
f 116/10/3 108/10/3 115/10/3
f 117/9/3 110/9/3 109/9/3
f 117/6/3 109/6/3 116/6/3
f 117/9/3 111/9/3 110/9/3
f 118/9/3 111/9/3 117/9/3
f 119/6/3 116/6/3 115/6/3
f 120/10/3 117/10/3 116/10/3
f 120/6/3 116/6/3 119/6/3
f 121/8/3 118/8/3 117/8/3
f 121/10/3 117/10/3 120/10/3
f 122/9/3 111/9/3 118/9/3
f 122/8/3 118/8/3 121/8/3
f 123/2/3 112/2/3 111/2/3
f 123/9/3 111/9/3 122/9/3
f 124/1/3 113/1/3 112/1/3
f 124/2/3 112/2/3 123/2/3
f 125/2/3 114/2/3 113/2/3
f 125/1/3 113/1/3 124/1/3
f 126/2/3 105/2/3 114/2/3
f 126/2/3 114/2/3 125/2/3
f 127/4/3 106/4/3 105/4/3
f 127/2/3 105/2/3 126/2/3
f 128/4/3 106/4/3 127/4/3
f 129/10/3 120/10/3 119/10/3
f 130/6/3 121/6/3 120/6/3
f 130/10/3 120/10/3 129/10/3
f 131/11/3 122/11/3 121/11/3
f 131/6/3 121/6/3 130/6/3
f 132/9/3 123/9/3 122/9/3
f 132/11/3 122/11/3 131/11/3
f 133/11/3 124/11/3 123/11/3
f 133/9/3 123/9/3 132/9/3
f 134/1/3 125/1/3 124/1/3
f 134/11/3 124/11/3 133/11/3
f 135/12/3 126/12/3 125/12/3
f 135/1/3 125/1/3 134/1/3
f 136/2/3 127/2/3 126/2/3
f 136/12/3 126/12/3 135/12/3
f 137/3/3 128/3/3 127/3/3
f 137/2/3 127/2/3 136/2/3
f 138/3/3 128/3/3 137/3/3
f 146/2/3 140/2/3 139/2/3
f 147/2/3 140/2/3 146/2/3
f 148/2/3 140/2/3 147/2/3
f 149/2/3 140/2/3 148/2/3
f 150/2/3 142/2/3 141/2/3
f 151/2/3 142/2/3 150/2/3
f 152/11/3 144/11/3 143/11/3
f 153/6/3 145/6/3 144/6/3
f 153/11/3 144/11/3 152/11/3
f 154/6/3 145/6/3 153/6/3
f 158/11/3 156/11/3 155/11/3
f 159/6/3 157/6/3 156/6/3
f 159/11/3 156/11/3 158/11/3
f 160/6/3 157/6/3 159/6/3
f 167/2/3 164/2/3 163/2/3
f 167/2/3 163/2/3 162/2/3
f 167/2/3 162/2/3 161/2/3
f 168/2/3 164/2/3 167/2/3
f 169/2/3 166/2/3 165/2/3
f 170/2/3 166/2/3 169/2/3
f 171/2/4 172/2/4 178/2/4
f 178/2/4 172/2/4 179/2/4
f 179/2/4 172/2/4 180/2/4
f 173/2/4 174/2/4 181/2/4
f 181/2/4 174/2/4 182/2/4
f 175/11/4 176/11/4 183/11/4
f 176/6/4 177/6/4 184/6/4
f 183/11/4 176/11/4 184/11/4
f 184/6/4 177/6/4 185/6/4
f 186/11/4 187/11/4 189/11/4
f 187/6/4 188/6/4 190/6/4
f 189/11/4 187/11/4 190/11/4
f 190/6/4 188/6/4 191/6/4
f 193/2/4 194/2/4 197/2/4
f 192/2/4 193/2/4 197/2/4
f 197/2/4 194/2/4 198/2/4
f 195/2/4 196/2/4 199/2/4
f 199/2/4 196/2/4 200/2/4
f 201/10/4 202/10/4 207/10/4
f 202/6/4 203/6/4 208/6/4
f 207/10/4 202/10/4 208/10/4
f 203/11/4 204/11/4 209/11/4
f 208/6/4 203/6/4 209/6/4
f 209/11/4 204/11/4 210/11/4
f 204/2/4 205/2/4 211/2/4
f 210/11/4 204/11/4 211/11/4
f 207/6/4 208/6/4 212/6/4
f 208/10/4 209/10/4 213/10/4
f 212/6/4 208/6/4 213/6/4
f 209/7/4 210/7/4 214/7/4
f 213/10/4 209/10/4 214/10/4
f 214/7/4 210/7/4 215/7/4
f 210/2/4 211/2/4 216/2/4
f 215/7/4 210/7/4 216/7/4
f 212/10/4 213/10/4 217/10/4
f 213/6/4 214/6/4 218/6/4
f 217/10/4 213/10/4 218/10/4
f 214/7/4 215/7/4 219/7/4
f 218/6/4 214/6/4 219/6/4
f 215/6/4 216/6/4 220/6/4
f 219/7/4 215/7/4 220/7/4
f 216/2/4 211/2/4 221/2/4
f 220/6/4 216/6/4 221/6/4
f 211/2/4 205/2/4 222/2/4
f 221/2/4 211/2/4 222/2/4
f 205/4/4 206/4/4 223/4/4
f 222/2/4 205/2/4 223/2/4
f 223/4/4 206/4/4 224/4/4
f 217/6/4 218/6/4 225/6/4
f 218/10/4 219/10/4 226/10/4
f 225/6/4 218/6/4 226/6/4
f 221/11/4 222/11/4 227/11/4
f 226/10/4 219/10/4 227/10/4
f 220/11/4 221/11/4 227/11/4
f 219/11/4 220/11/4 227/11/4
f 222/2/4 223/2/4 228/2/4
f 227/11/4 222/11/4 228/11/4
f 223/3/4 224/3/4 229/3/4
f 228/2/4 223/2/4 229/2/4
f 229/3/4 224/3/4 230/3/4
f 235/11/5 232/11/5 231/11/5
f 236/11/5 232/11/5 235/11/5
f 237/11/5 234/11/5 233/11/5
f 238/11/5 234/11/5 237/11/5
f 244/6/5 240/6/5 239/6/5
f 245/10/5 241/10/5 240/10/5
f 245/6/5 240/6/5 244/6/5
f 246/6/5 242/6/5 241/6/5
f 246/10/5 241/10/5 245/10/5
f 247/10/5 243/10/5 242/10/5
f 247/6/5 242/6/5 246/6/5
f 248/10/5 243/10/5 247/10/5
f 250/10/5 246/10/5 245/10/5
f 250/10/5 247/10/5 246/10/5
f 251/10/5 247/10/5 250/10/5
f 252/10/5 247/10/5 251/10/5
f 254/10/5 250/10/5 249/10/5
f 255/6/5 251/6/5 250/6/5
f 255/10/5 250/10/5 254/10/5
f 256/10/5 252/10/5 251/10/5
f 256/6/5 251/6/5 255/6/5
f 257/6/5 253/6/5 252/6/5
f 257/10/5 252/10/5 256/10/5
f 258/6/5 253/6/5 257/6/5
f 263/2/5 260/2/5 259/2/5
f 264/2/5 260/2/5 263/2/5
f 265/2/5 262/2/5 261/2/5
f 266/2/5 262/2/5 265/2/5
f 271/2/5 268/2/5 267/2/5
f 272/2/5 268/2/5 271/2/5
f 273/2/5 270/2/5 269/2/5
f 274/2/5 270/2/5 273/2/5
f 275/2/6 276/2/6 279/2/6
f 279/2/6 276/2/6 280/2/6
f 277/2/6 278/2/6 281/2/6
f 281/2/6 278/2/6 282/2/6
f 283/2/6 284/2/6 287/2/6
f 287/2/6 284/2/6 288/2/6
f 285/2/6 286/2/6 289/2/6
f 289/2/6 286/2/6 290/2/6
f 291/4/6 292/4/6 294/4/6
f 292/3/6 293/3/6 295/3/6
f 294/4/6 292/4/6 295/4/6
f 295/3/6 293/3/6 296/3/6
