# MagicaVoxel @ Ephtracy

# material
mtllib dutch-dying-02.mtl
usemtl palette

# normals
vn -1 0 0
vn 1 0 0
vn 0 0 1
vn 0 0 -1
vn 0 -1 0
vn 0 1 0

# texcoords
vt 0.0292969 0.5
vt 0.0332031 0.5
vt 0.201172 0.5
vt 0.369141 0.5
vt 0.634766 0.5
vt 0.654297 0.5
vt 0.677734 0.5
vt 0.791016 0.5
vt 0.845703 0.5
vt 0.849609 0.5
vt 0.853516 0.5
vt 0.857422 0.5
vt 0.904297 0.5
vt 0.916016 0.5
vt 0.994141 0.5

# verts
v -5 0 5.5
v -5 0 4.5
v -5 0 1.5
v -5 0 0.5
v -5 0 -0.5
v -5 0 -4.5
v -5 1 5.5
v -5 1 4.5
v -5 1 1.5
v -5 1 0.5
v -5 1 -0.5
v -5 1 -4.5
v -4 0 3.5
v -4 0 1.5
v -4 1 3.5
v -4 1 1.5
v -3 0 0.5
v -3 0 -1.5
v -3 0 -4.5
v -3 0 -7.5
v -3 1 1.5
v -3 1 0.5
v -3 1 -1.5
v -3 1 -2.5
v -3 1 -4.5
v -3 1 -7.5
v -3 2 1.5
v -3 2 0.5
v -3 2 -1.5
v -3 2 -2.5
v -2 0 4.5
v -2 0 3.5
v -2 0 -3.5
v -2 0 -4.5
v -2 1 4.5
v -2 1 3.5
v -2 1 2.5
v -2 1 1.5
v -2 1 0.5
v -2 1 -0.5
v -2 1 -1.5
v -2 1 -2.5
v -2 1 -3.5
v -2 1 -4.5
v -2 1 -5.5
v -2 2 1.5
v -2 2 0.5
v -2 2 -0.5
v -2 2 -1.5
v -2 2 -2.5
v -2 2 -4.5
v -2 2 -5.5
v -2 3 3.5
v -2 3 2.5
v -2 3 -0.5
v -2 3 -3.5
v -2 3 -4.5
v -1 0 6.5
v -1 0 4.5
v -1 1 6.5
v -1 1 4.5
v 1 0 7.5
v 1 0 6.5
v 1 0 5.5
v 1 0 4.5
v 1 0 -4.5
v 1 0 -5.5
v 1 1 7.5
v 1 1 6.5
v 1 1 5.5
v 1 1 4.5
v 1 1 -4.5
v 1 1 -5.5
v 3 0 7.5
v 3 0 6.5
v 3 0 1.5
v 3 0 0.5
v 3 1 7.5
v 3 1 6.5
v 3 1 1.5
v 3 1 0.5
v -4 0 5.5
v -4 0 4.5
v -4 0 -0.5
v -4 0 -1.5
v -4 1 5.5
v -4 1 4.5
v -4 1 -0.5
v -4 1 -1.5
v -3 0 -3.5
v -3 0 -4.5
v -3 1 -3.5
v -3 1 -4.5
v -1 0 -4.5
v -1 0 -5.5
v -1 1 -4.5
v -1 1 -5.5
v 0 0 6.5
v 0 0 4.5
v 0 0 -6.5
v 0 0 -7.5
v 0 1 6.5
v 0 1 4.5
v 0 1 -6.5
v 0 1 -7.5
v 2 0 7.5
v 2 0 6.5
v 2 0 4.5
v 2 0 3.5
v 2 0 1.5
v 2 0 0.5
v 2 1 7.5
v 2 1 6.5
v 2 1 4.5
v 2 1 3.5
v 2 1 2.5
v 2 1 1.5
v 2 1 0.5
v 2 1 -0.5
v 2 1 -1.5
v 2 1 -3.5
v 2 1 -5.5
v 2 2 1.5
v 2 2 0.5
v 2 2 -1.5
v 2 2 -2.5
v 2 2 -3.5
v 2 2 -4.5
v 2 2 -5.5
v 2 3 3.5
v 2 3 2.5
v 2 3 -0.5
v 2 3 -3.5
v 2 3 -4.5
v 3 0 5.5
v 3 0 4.5
v 3 0 0.5
v 3 0 -0.5
v 3 0 -3.5
v 3 0 -6.5
v 3 1 5.5
v 3 1 4.5
v 3 1 1.5
v 3 1 0.5
v 3 1 -0.5
v 3 1 -1.5
v 3 1 -2.5
v 3 1 -3.5
v 3 1 -6.5
v 3 2 1.5
v 3 2 0.5
v 3 2 -1.5
v 3 2 -2.5
v 3 2 -3.5
v 4 0 7.5
v 4 0 6.5
v 4 0 -0.5
v 4 0 -3.5
v 4 1 7.5
v 4 1 6.5
v 4 1 -0.5
v 4 1 -3.5
v 5 0 3.5
v 5 0 0.5
v 5 1 3.5
v 5 1 0.5
v 1 0 7.5
v 1 1 7.5
v 2 0 7.5
v 2 1 7.5
v 3 0 7.5
v 3 1 7.5
v 4 0 7.5
v 4 1 7.5
v -1 0 6.5
v -1 1 6.5
v 0 0 6.5
v 0 1 6.5
v -5 0 5.5
v -5 1 5.5
v -4 0 5.5
v -4 1 5.5
v 1 0 5.5
v 1 1 5.5
v 3 0 5.5
v 3 1 5.5
v -2 0 4.5
v -2 1 4.5
v -1 0 4.5
v -1 1 4.5
v 0 0 4.5
v 0 1 4.5
v 1 0 4.5
v 1 1 4.5
v -4 0 3.5
v -4 1 3.5
v -2 0 3.5
v -2 1 3.5
v -2 3 3.5
v 1 1 3.5
v 1 3 3.5
v 2 0 3.5
v 2 1 3.5
v 2 3 3.5
v 5 0 3.5
v 5 1 3.5
v -5 0 1.5
v -5 1 1.5
v -4 0 1.5
v -4 1 1.5
v -3 1 1.5
v -3 2 1.5
v -2 1 1.5
v -2 2 1.5
v 2 1 1.5
v 2 2 1.5
v 3 1 1.5
v 3 2 1.5
v 2 0 0.5
v 2 1 0.5
v 3 0 0.5
v 3 1 0.5
v -5 0 -0.5
v -5 1 -0.5
v -4 0 -0.5
v -4 1 -0.5
v 3 0 -0.5
v 3 1 -0.5
v 4 0 -0.5
v 4 1 -0.5
v -4 0 -1.5
v -4 1 -1.5
v -3 0 -1.5
v -3 1 -1.5
v -3 2 -1.5
v -2 1 -1.5
v -2 2 -1.5
v 2 1 -1.5
v 2 2 -1.5
v 3 1 -1.5
v 3 2 -1.5
v -3 0 -4.5
v -3 1 -4.5
v -2 0 -4.5
v -2 1 -4.5
v -1 0 -5.5
v -1 1 -5.5
v 1 0 -5.5
v 1 1 -5.5
v 1 0 6.5
v 1 1 6.5
v 2 0 6.5
v 2 1 6.5
v 3 0 6.5
v 3 1 6.5
v 4 0 6.5
v 4 1 6.5
v -5 0 4.5
v -5 1 4.5
v -4 0 4.5
v -4 1 4.5
v 2 0 4.5
v 2 1 4.5
v 3 0 4.5
v 3 1 4.5
v 2 0 1.5
v 2 1 1.5
v 3 0 1.5
v 3 1 1.5
v -5 0 0.5
v -5 1 0.5
v -3 0 0.5
v -3 1 0.5
v -3 2 0.5
v -2 1 0.5
v -2 2 0.5
v 2 1 0.5
v 2 2 0.5
v 3 0 0.5
v 3 1 0.5
v 3 2 0.5
v 5 0 0.5
v 5 1 0.5
v -3 1 -2.5
v -3 2 -2.5
v -2 1 -2.5
v -2 2 -2.5
v -3 0 -3.5
v -3 1 -3.5
v -2 0 -3.5
v -2 1 -3.5
v 2 1 -3.5
v 2 2 -3.5
v 3 0 -3.5
v 3 1 -3.5
v 3 2 -3.5
v 4 0 -3.5
v 4 1 -3.5
v -5 0 -4.5
v -5 1 -4.5
v -3 0 -4.5
v -3 1 -4.5
v -2 2 -4.5
v -2 3 -4.5
v -1 0 -4.5
v -1 1 -4.5
v -1 2 -4.5
v -1 3 -4.5
v 0 0 -4.5
v 0 1 -4.5
v 0 2 -4.5
v 0 3 -4.5
v 1 0 -4.5
v 1 1 -4.5
v 1 2 -4.5
v 1 3 -4.5
v 2 2 -4.5
v 2 3 -4.5
v -2 1 -5.5
v -2 2 -5.5
v -1 1 -5.5
v -1 2 -5.5
v 1 1 -5.5
v 2 1 -5.5
v 2 2 -5.5
v 0 0 -6.5
v 0 1 -6.5
v 1 0 -6.5
v 1 1 -6.5
v 2 0 -6.5
v 2 1 -6.5
v 3 0 -6.5
v 3 1 -6.5
v -3 0 -7.5
v -3 1 -7.5
v 0 0 -7.5
v 0 1 -7.5
v 1 0 7.5
v 2 0 7.5
v 3 0 7.5
v 4 0 7.5
v -1 0 6.5
v 0 0 6.5
v 1 0 6.5
v 2 0 6.5
v 3 0 6.5
v 4 0 6.5
v -5 0 5.5
v -4 0 5.5
v 1 0 5.5
v 3 0 5.5
v -5 0 4.5
v -4 0 4.5
v -2 0 4.5
v -1 0 4.5
v 0 0 4.5
v 1 0 4.5
v 2 0 4.5
v 3 0 4.5
v -4 0 3.5
v -2 0 3.5
v 1 0 3.5
v 2 0 3.5
v 5 0 3.5
v -2 0 2.5
v 1 0 2.5
v 2 0 2.5
v -5 0 1.5
v -4 0 1.5
v -2 0 1.5
v -1 0 1.5
v 1 0 1.5
v 2 0 1.5
v 3 0 1.5
v -5 0 0.5
v -3 0 0.5
v -2 0 0.5
v -1 0 0.5
v 1 0 0.5
v 2 0 0.5
v 3 0 0.5
v 5 0 0.5
v -5 0 -0.5
v -4 0 -0.5
v -2 0 -0.5
v -1 0 -0.5
v 1 0 -0.5
v 2 0 -0.5
v 3 0 -0.5
v 4 0 -0.5
v -4 0 -1.5
v -3 0 -1.5
v -2 0 -1.5
v -1 0 -1.5
v 1 0 -1.5
v 2 0 -1.5
v 3 0 -1.5
v -2 0 -2.5
v -1 0 -2.5
v 0 0 -2.5
v 1 0 -2.5
v 2 0 -2.5
v -3 0 -3.5
v -2 0 -3.5
v -1 0 -3.5
v 0 0 -3.5
v 1 0 -3.5
v 2 0 -3.5
v 3 0 -3.5
v 4 0 -3.5
v -5 0 -4.5
v -3 0 -4.5
v -2 0 -4.5
v -1 0 -4.5
v 0 0 -4.5
v 1 0 -4.5
v -2 0 -5.5
v -1 0 -5.5
v 1 0 -5.5
v 2 0 -5.5
v -2 0 -6.5
v -1 0 -6.5
v 0 0 -6.5
v 1 0 -6.5
v 2 0 -6.5
v 3 0 -6.5
v -3 0 -7.5
v 0 0 -7.5
v 2 1 1.5
v 3 1 1.5
v 2 1 0.5
v 3 1 0.5
v -1 1 -4.5
v 0 1 -4.5
v 1 1 -4.5
v -1 1 -5.5
v 1 1 -5.5
v 1 1 7.5
v 2 1 7.5
v 3 1 7.5
v 4 1 7.5
v -1 1 6.5
v 0 1 6.5
v 1 1 6.5
v 2 1 6.5
v 3 1 6.5
v 4 1 6.5
v -5 1 5.5
v -4 1 5.5
v 1 1 5.5
v 3 1 5.5
v -5 1 4.5
v -4 1 4.5
v -2 1 4.5
v -1 1 4.5
v 0 1 4.5
v 1 1 4.5
v 2 1 4.5
v 3 1 4.5
v -4 1 3.5
v -2 1 3.5
v 1 1 3.5
v 2 1 3.5
v 5 1 3.5
v -2 1 2.5
v 2 1 2.5
v -5 1 1.5
v -4 1 1.5
v -3 1 1.5
v -2 1 1.5
v 2 1 1.5
v 3 1 1.5
v -5 1 0.5
v -3 1 0.5
v -2 1 0.5
v 2 1 0.5
v 3 1 0.5
v 5 1 0.5
v -5 1 -0.5
v -4 1 -0.5
v -2 1 -0.5
v 2 1 -0.5
v 3 1 -0.5
v 4 1 -0.5
v -4 1 -1.5
v -3 1 -1.5
v -2 1 -1.5
v 2 1 -1.5
v 3 1 -1.5
v -3 1 -2.5
v -2 1 -2.5
v 3 1 -2.5
v -3 1 -3.5
v -2 1 -3.5
v 2 1 -3.5
v 3 1 -3.5
v 4 1 -3.5
v -5 1 -4.5
v -3 1 -4.5
v -2 1 -4.5
v -2 1 -5.5
v -1 1 -5.5
v 1 1 -5.5
v 2 1 -5.5
v -2 1 -6.5
v -1 1 -6.5
v 0 1 -6.5
v 1 1 -6.5
v 2 1 -6.5
v 3 1 -6.5
v -3 1 -7.5
v 0 1 -7.5
v -3 2 1.5
v -2 2 1.5
v 2 2 1.5
v 3 2 1.5
v -3 2 0.5
v -2 2 0.5
v 2 2 0.5
v 3 2 0.5
v -3 2 -1.5
v -2 2 -1.5
v 2 2 -1.5
v 3 2 -1.5
v -3 2 -2.5
v -2 2 -2.5
v 2 2 -2.5
v 3 2 -2.5
v 2 2 -3.5
v 3 2 -3.5
v -2 2 -4.5
v -1 2 -4.5
v 0 2 -4.5
v 1 2 -4.5
v 2 2 -4.5
v -2 2 -5.5
v -1 2 -5.5
v 2 2 -5.5
v -2 3 3.5
v 1 3 3.5
v 2 3 3.5
v -2 3 2.5
v 1 3 2.5
v 2 3 2.5
v -2 3 -0.5
v -1 3 -0.5
v 1 3 -0.5
v 2 3 -0.5
v -1 3 -1.5
v 0 3 -1.5
v 1 3 -1.5
v 0 3 -2.5
v 1 3 -2.5
v -2 3 -3.5
v -1 3 -3.5
v 0 3 -3.5
v 1 3 -3.5
v 2 3 -3.5
v -2 3 -4.5
v -1 3 -4.5
v 0 3 -4.5
v 1 3 -4.5
v 2 3 -4.5

# faces
f 7/9/1 2/9/1 1/9/1
f 8/9/1 2/9/1 7/9/1
f 9/9/1 4/9/1 3/9/1
f 10/9/1 4/9/1 9/9/1
f 11/9/1 6/9/1 5/9/1
f 12/9/1 6/9/1 11/9/1
f 15/9/1 14/9/1 13/9/1
f 16/9/1 14/9/1 15/9/1
f 22/2/1 18/2/1 17/2/1
f 23/2/1 18/2/1 22/2/1
f 25/9/1 20/9/1 19/9/1
f 26/9/1 20/9/1 25/9/1
f 27/2/1 22/2/1 21/2/1
f 28/2/1 22/2/1 27/2/1
f 29/2/1 24/2/1 23/2/1
f 30/2/1 24/2/1 29/2/1
f 35/9/1 32/9/1 31/9/1
f 36/9/1 32/9/1 35/9/1
f 43/13/1 34/13/1 33/13/1
f 44/13/1 34/13/1 43/13/1
f 46/2/1 38/2/1 37/2/1
f 47/1/1 40/1/1 39/1/1
f 48/14/1 41/14/1 40/14/1
f 48/1/1 40/1/1 47/1/1
f 49/14/1 41/14/1 48/14/1
f 50/14/1 43/14/1 42/14/1
f 51/6/1 45/6/1 44/6/1
f 51/6/1 44/6/1 43/6/1
f 52/6/1 45/6/1 51/6/1
f 53/4/1 37/4/1 36/4/1
f 54/2/1 47/2/1 46/2/1
f 54/4/1 37/4/1 53/4/1
f 54/2/1 46/2/1 37/2/1
f 54/2/1 48/2/1 47/2/1
f 55/14/1 50/14/1 49/14/1
f 55/2/1 48/2/1 54/2/1
f 55/14/1 49/14/1 48/14/1
f 56/14/1 43/14/1 50/14/1
f 56/14/1 50/14/1 55/14/1
f 56/6/1 51/6/1 43/6/1
f 57/6/1 51/6/1 56/6/1
f 60/9/1 59/9/1 58/9/1
f 61/9/1 59/9/1 60/9/1
f 68/9/1 63/9/1 62/9/1
f 69/9/1 63/9/1 68/9/1
f 70/9/1 65/9/1 64/9/1
f 71/9/1 65/9/1 70/9/1
f 72/6/1 67/6/1 66/6/1
f 73/6/1 67/6/1 72/6/1
f 78/9/1 75/9/1 74/9/1
f 79/9/1 75/9/1 78/9/1
f 80/9/1 77/9/1 76/9/1
f 81/9/1 77/9/1 80/9/1
f 82/9/2 83/9/2 86/9/2
f 86/9/2 83/9/2 87/9/2
f 84/9/2 85/9/2 88/9/2
f 88/9/2 85/9/2 89/9/2
f 90/9/2 91/9/2 92/9/2
f 92/9/2 91/9/2 93/9/2
f 94/6/2 95/6/2 96/6/2
f 96/6/2 95/6/2 97/6/2
f 98/9/2 99/9/2 102/9/2
f 102/9/2 99/9/2 103/9/2
f 100/9/2 101/9/2 104/9/2
f 104/9/2 101/9/2 105/9/2
f 106/9/2 107/9/2 112/9/2
f 112/9/2 107/9/2 113/9/2
f 108/9/2 109/9/2 114/9/2
f 114/9/2 109/9/2 115/9/2
f 110/15/2 111/15/2 117/15/2
f 117/15/2 111/15/2 118/15/2
f 116/2/2 117/2/2 123/2/2
f 118/2/2 119/2/2 124/2/2
f 119/14/2 120/14/2 125/14/2
f 121/13/2 122/13/2 127/13/2
f 127/13/2 122/13/2 128/13/2
f 128/13/2 122/13/2 129/13/2
f 115/3/2 116/3/2 130/3/2
f 123/2/2 124/2/2 131/2/2
f 130/3/2 116/3/2 131/3/2
f 116/2/2 123/2/2 131/2/2
f 125/14/2 126/14/2 132/14/2
f 131/2/2 124/2/2 132/2/2
f 124/2/2 119/2/2 132/2/2
f 126/14/2 127/14/2 132/14/2
f 119/14/2 125/14/2 132/14/2
f 127/13/2 128/13/2 133/13/2
f 132/14/2 127/14/2 133/14/2
f 133/13/2 128/13/2 134/13/2
f 135/9/2 136/9/2 141/9/2
f 141/9/2 136/9/2 142/9/2
f 137/2/2 138/2/2 144/2/2
f 144/2/2 138/2/2 145/2/2
f 139/9/2 140/9/2 148/9/2
f 148/9/2 140/9/2 149/9/2
f 143/2/2 144/2/2 150/2/2
f 150/2/2 144/2/2 151/2/2
f 146/2/2 147/2/2 152/2/2
f 147/9/2 148/9/2 153/9/2
f 152/2/2 147/2/2 153/2/2
f 153/9/2 148/9/2 154/9/2
f 155/9/2 156/9/2 159/9/2
f 159/9/2 156/9/2 160/9/2
f 157/9/2 158/9/2 161/9/2
f 161/9/2 158/9/2 162/9/2
f 163/9/2 164/9/2 165/9/2
f 165/9/2 164/9/2 166/9/2
f 169/9/3 168/9/3 167/9/3
f 170/9/3 168/9/3 169/9/3
f 173/9/3 172/9/3 171/9/3
f 174/9/3 172/9/3 173/9/3
f 177/9/3 176/9/3 175/9/3
f 178/9/3 176/9/3 177/9/3
f 181/9/3 180/9/3 179/9/3
f 182/9/3 180/9/3 181/9/3
f 185/9/3 184/9/3 183/9/3
f 186/9/3 184/9/3 185/9/3
f 189/9/3 188/9/3 187/9/3
f 190/9/3 188/9/3 189/9/3
f 193/9/3 192/9/3 191/9/3
f 194/9/3 192/9/3 193/9/3
f 197/9/3 196/9/3 195/9/3
f 198/9/3 196/9/3 197/9/3
f 200/4/3 199/4/3 198/4/3
f 201/4/3 199/4/3 200/4/3
f 203/3/3 201/3/3 200/3/3
f 204/3/3 201/3/3 203/3/3
f 205/9/3 203/9/3 202/9/3
f 206/9/3 203/9/3 205/9/3
f 209/9/3 208/9/3 207/9/3
f 210/9/3 208/9/3 209/9/3
f 213/2/3 212/2/3 211/2/3
f 214/2/3 212/2/3 213/2/3
f 217/2/3 216/2/3 215/2/3
f 218/2/3 216/2/3 217/2/3
f 221/2/3 220/2/3 219/2/3
f 222/2/3 220/2/3 221/2/3
f 225/9/3 224/9/3 223/9/3
f 226/9/3 224/9/3 225/9/3
f 229/9/3 228/9/3 227/9/3
f 230/9/3 228/9/3 229/9/3
f 233/9/3 232/9/3 231/9/3
f 234/9/3 232/9/3 233/9/3
f 236/2/3 235/2/3 234/2/3
f 237/2/3 235/2/3 236/2/3
f 240/2/3 239/2/3 238/2/3
f 241/2/3 239/2/3 240/2/3
f 244/9/3 243/9/3 242/9/3
f 245/9/3 243/9/3 244/9/3
f 248/9/3 247/9/3 246/9/3
f 249/9/3 247/9/3 248/9/3
f 250/9/4 251/9/4 252/9/4
f 252/9/4 251/9/4 253/9/4
f 254/9/4 255/9/4 256/9/4
f 256/9/4 255/9/4 257/9/4
f 258/9/4 259/9/4 260/9/4
f 260/9/4 259/9/4 261/9/4
f 262/9/4 263/9/4 264/9/4
f 264/9/4 263/9/4 265/9/4
f 266/9/4 267/9/4 268/9/4
f 268/9/4 267/9/4 269/9/4
f 270/9/4 271/9/4 272/9/4
f 272/9/4 271/9/4 273/9/4
f 273/2/4 274/2/4 275/2/4
f 275/2/4 274/2/4 276/2/4
f 277/2/4 278/2/4 280/2/4
f 280/2/4 278/2/4 281/2/4
f 279/9/4 280/9/4 282/9/4
f 282/9/4 280/9/4 283/9/4
f 284/2/4 285/2/4 286/2/4
f 286/2/4 285/2/4 287/2/4
f 288/9/4 289/9/4 290/9/4
f 290/9/4 289/9/4 291/9/4
f 292/9/4 293/9/4 295/9/4
f 295/9/4 293/9/4 296/9/4
f 294/9/4 295/9/4 297/9/4
f 297/9/4 295/9/4 298/9/4
f 299/9/4 300/9/4 301/9/4
f 301/9/4 300/9/4 302/9/4
f 303/6/4 304/6/4 307/6/4
f 307/6/4 304/6/4 308/6/4
f 305/12/4 306/12/4 309/12/4
f 309/12/4 306/12/4 310/12/4
f 307/13/4 308/13/4 311/13/4
f 311/13/4 308/13/4 312/13/4
f 309/11/4 310/11/4 313/11/4
f 313/11/4 310/11/4 314/11/4
f 311/6/4 312/6/4 315/6/4
f 315/6/4 312/6/4 316/6/4
f 315/13/4 316/13/4 317/13/4
f 317/13/4 316/13/4 318/13/4
f 319/6/4 320/6/4 321/6/4
f 321/6/4 320/6/4 322/6/4
f 321/13/4 322/13/4 323/13/4
f 323/13/4 322/13/4 324/13/4
f 324/13/4 322/13/4 325/13/4
f 326/9/4 327/9/4 328/9/4
f 328/9/4 327/9/4 329/9/4
f 328/14/4 329/14/4 330/14/4
f 330/14/4 329/14/4 331/14/4
f 330/9/4 331/9/4 332/9/4
f 332/9/4 331/9/4 333/9/4
f 334/9/4 335/9/4 336/9/4
f 336/9/4 335/9/4 337/9/4
f 344/9/5 339/9/5 338/9/5
f 345/9/5 339/9/5 344/9/5
f 346/9/5 341/9/5 340/9/5
f 347/9/5 341/9/5 346/9/5
f 352/9/5 349/9/5 348/9/5
f 353/9/5 349/9/5 352/9/5
f 355/9/5 343/9/5 342/9/5
f 356/9/5 343/9/5 355/9/5
f 357/9/5 351/9/5 350/9/5
f 358/9/5 351/9/5 357/9/5
f 359/9/5 351/9/5 358/9/5
f 361/9/5 356/9/5 355/9/5
f 361/9/5 358/9/5 357/9/5
f 361/9/5 357/9/5 356/9/5
f 361/9/5 355/9/5 354/9/5
f 362/9/5 358/9/5 361/9/5
f 363/9/5 358/9/5 362/9/5
f 365/4/5 362/4/5 361/4/5
f 365/9/5 361/9/5 360/9/5
f 366/3/5 363/3/5 362/3/5
f 366/4/5 362/4/5 365/4/5
f 367/9/5 364/9/5 363/9/5
f 367/3/5 363/3/5 366/3/5
f 369/9/5 365/9/5 360/9/5
f 370/11/5 366/11/5 365/11/5
f 370/11/5 367/11/5 366/11/5
f 370/9/5 365/9/5 369/9/5
f 371/11/5 367/11/5 370/11/5
f 372/11/5 367/11/5 371/11/5
f 373/9/5 364/9/5 367/9/5
f 373/11/5 367/11/5 372/11/5
f 374/9/5 364/9/5 373/9/5
f 375/9/5 369/9/5 368/9/5
f 375/9/5 370/9/5 369/9/5
f 376/9/5 370/9/5 375/9/5
f 377/15/5 371/15/5 370/15/5
f 377/9/5 370/9/5 376/9/5
f 378/11/5 372/11/5 371/11/5
f 378/15/5 371/15/5 377/15/5
f 379/15/5 373/15/5 372/15/5
f 379/11/5 372/11/5 378/11/5
f 380/15/5 373/15/5 379/15/5
f 381/9/5 364/9/5 374/9/5
f 382/9/5 364/9/5 381/9/5
f 385/2/5 377/2/5 376/2/5
f 385/1/5 380/1/5 379/1/5
f 385/1/5 378/1/5 377/1/5
f 385/1/5 379/1/5 378/1/5
f 386/1/5 380/1/5 385/1/5
f 387/1/5 380/1/5 386/1/5
f 388/2/5 381/2/5 380/2/5
f 388/1/5 380/1/5 387/1/5
f 389/2/5 381/2/5 388/2/5
f 391/9/5 384/9/5 383/9/5
f 392/2/5 385/2/5 376/2/5
f 393/14/5 386/14/5 385/14/5
f 393/2/5 385/2/5 392/2/5
f 394/11/5 387/11/5 386/11/5
f 394/14/5 386/14/5 393/14/5
f 395/14/5 388/14/5 387/14/5
f 395/11/5 387/11/5 394/11/5
f 396/2/5 389/2/5 388/2/5
f 396/14/5 388/14/5 395/14/5
f 397/9/5 390/9/5 389/9/5
f 397/2/5 389/2/5 396/2/5
f 398/8/5 396/8/5 395/8/5
f 398/9/5 393/9/5 392/9/5
f 398/9/5 392/9/5 391/9/5
f 398/8/5 394/8/5 393/8/5
f 398/8/5 395/8/5 394/8/5
f 399/8/5 396/8/5 398/8/5
f 400/8/5 396/8/5 399/8/5
f 401/8/5 396/8/5 400/8/5
f 402/9/5 397/9/5 396/9/5
f 402/8/5 396/8/5 401/8/5
f 403/9/5 398/9/5 391/9/5
f 404/14/5 399/14/5 398/14/5
f 404/9/5 398/9/5 403/9/5
f 405/10/5 400/10/5 399/10/5
f 405/14/5 399/14/5 404/14/5
f 406/11/5 401/11/5 400/11/5
f 406/10/5 400/10/5 405/10/5
f 407/14/5 402/14/5 401/14/5
f 407/11/5 401/11/5 406/11/5
f 408/9/5 397/9/5 402/9/5
f 408/14/5 402/14/5 407/14/5
f 409/9/5 390/9/5 397/9/5
f 409/9/5 397/9/5 408/9/5
f 410/9/5 390/9/5 409/9/5
f 411/9/5 391/9/5 383/9/5
f 411/9/5 403/9/5 391/9/5
f 412/9/5 403/9/5 411/9/5
f 413/13/5 405/13/5 404/13/5
f 414/12/5 406/12/5 405/12/5
f 414/13/5 405/13/5 413/13/5
f 415/11/5 407/11/5 406/11/5
f 415/12/5 406/12/5 414/12/5
f 416/6/5 408/6/5 407/6/5
f 416/11/5 407/11/5 415/11/5
f 417/6/5 414/6/5 413/6/5
f 417/9/5 413/9/5 412/9/5
f 418/6/5 414/6/5 417/6/5
f 419/6/5 408/6/5 416/6/5
f 420/9/5 409/9/5 408/9/5
f 420/6/5 408/6/5 419/6/5
f 421/14/5 418/14/5 417/14/5
f 421/9/5 417/9/5 412/9/5
f 422/9/5 419/9/5 418/9/5
f 422/14/5 418/14/5 421/14/5
f 423/9/5 419/9/5 422/9/5
f 424/14/5 420/14/5 419/14/5
f 424/9/5 419/9/5 423/9/5
f 425/9/5 409/9/5 420/9/5
f 425/14/5 420/14/5 424/14/5
f 426/9/5 409/9/5 425/9/5
f 427/9/5 421/9/5 412/9/5
f 427/9/5 422/9/5 421/9/5
f 427/9/5 423/9/5 422/9/5
f 428/9/5 423/9/5 427/9/5
f 431/2/5 430/2/5 429/2/5
f 432/2/5 430/2/5 431/2/5
f 436/13/5 434/13/5 433/13/5
f 436/13/5 435/13/5 434/13/5
f 437/13/5 435/13/5 436/13/5
f 438/9/6 439/9/6 444/9/6
f 444/9/6 439/9/6 445/9/6
f 440/9/6 441/9/6 446/9/6
f 446/9/6 441/9/6 447/9/6
f 448/9/6 449/9/6 452/9/6
f 452/9/6 449/9/6 453/9/6
f 442/9/6 443/9/6 455/9/6
f 455/9/6 443/9/6 456/9/6
f 450/9/6 451/9/6 457/9/6
f 457/9/6 451/9/6 458/9/6
f 458/9/6 451/9/6 459/9/6
f 455/9/6 456/9/6 461/9/6
f 457/9/6 458/9/6 461/9/6
f 456/9/6 457/9/6 461/9/6
f 454/9/6 455/9/6 461/9/6
f 461/9/6 458/9/6 462/9/6
f 462/9/6 458/9/6 463/9/6
f 460/9/6 461/9/6 465/9/6
f 463/9/6 464/9/6 466/9/6
f 460/9/6 465/9/6 468/9/6
f 468/9/6 465/9/6 469/9/6
f 469/9/6 465/9/6 470/9/6
f 466/9/6 464/9/6 471/9/6
f 471/9/6 464/9/6 472/9/6
f 467/9/6 468/9/6 473/9/6
f 468/9/6 469/9/6 473/9/6
f 473/9/6 469/9/6 474/9/6
f 472/9/6 464/9/6 477/9/6
f 477/9/6 464/9/6 478/9/6
f 474/2/6 475/2/6 481/2/6
f 476/2/6 477/2/6 482/2/6
f 482/2/6 477/2/6 483/2/6
f 479/9/6 480/9/6 485/9/6
f 474/2/6 481/2/6 486/2/6
f 486/2/6 481/2/6 487/2/6
f 482/2/6 483/2/6 488/2/6
f 483/9/6 484/9/6 489/9/6
f 488/2/6 483/2/6 489/2/6
f 485/9/6 486/9/6 490/9/6
f 489/9/6 484/9/6 492/9/6
f 490/9/6 491/9/6 493/9/6
f 485/9/6 490/9/6 493/9/6
f 493/9/6 491/9/6 494/9/6
f 492/9/6 484/9/6 496/9/6
f 496/9/6 484/9/6 497/9/6
f 479/9/6 485/9/6 498/9/6
f 485/9/6 493/9/6 498/9/6
f 498/9/6 493/9/6 499/9/6
f 499/9/6 500/9/6 501/9/6
f 495/9/6 496/9/6 504/9/6
f 499/9/6 501/9/6 505/9/6
f 501/14/6 502/14/6 505/14/6
f 502/9/6 503/9/6 506/9/6
f 505/14/6 502/14/6 506/14/6
f 506/9/6 503/9/6 507/9/6
f 503/14/6 504/14/6 508/14/6
f 507/9/6 503/9/6 508/9/6
f 504/9/6 496/9/6 509/9/6
f 508/14/6 504/14/6 509/14/6
f 509/9/6 496/9/6 510/9/6
f 499/9/6 505/9/6 511/9/6
f 506/9/6 507/9/6 511/9/6
f 505/9/6 506/9/6 511/9/6
f 511/9/6 507/9/6 512/9/6
f 513/2/6 514/2/6 517/2/6
f 517/2/6 514/2/6 518/2/6
f 515/2/6 516/2/6 519/2/6
f 519/2/6 516/2/6 520/2/6
f 521/2/6 522/2/6 525/2/6
f 525/2/6 522/2/6 526/2/6
f 523/2/6 524/2/6 527/2/6
f 527/2/6 524/2/6 528/2/6
f 527/9/6 528/9/6 529/9/6
f 529/9/6 528/9/6 530/9/6
f 531/6/6 532/6/6 536/6/6
f 534/13/6 535/13/6 537/13/6
f 536/6/6 532/6/6 537/6/6
f 532/13/6 533/13/6 537/13/6
f 533/13/6 534/13/6 537/13/6
f 537/13/6 535/13/6 538/13/6
f 539/4/6 540/4/6 542/4/6
f 540/3/6 541/3/6 543/3/6
f 542/4/6 540/4/6 543/4/6
f 543/3/6 541/3/6 544/3/6
f 542/2/6 543/2/6 545/2/6
f 543/2/6 544/2/6 545/2/6
f 545/2/6 544/2/6 546/2/6
f 546/2/6 544/2/6 547/2/6
f 547/2/6 544/2/6 548/2/6
f 545/14/6 546/14/6 549/14/6
f 546/2/6 547/2/6 549/2/6
f 549/2/6 547/2/6 550/2/6
f 547/14/6 548/14/6 551/14/6
f 550/2/6 547/2/6 551/2/6
f 549/7/6 550/7/6 552/7/6
f 550/6/6 551/6/6 552/6/6
f 551/14/6 548/14/6 553/14/6
f 552/6/6 551/6/6 553/6/6
f 545/14/6 549/14/6 554/14/6
f 549/7/6 552/7/6 555/7/6
f 554/14/6 549/14/6 555/14/6
f 552/7/6 553/7/6 555/7/6
f 555/7/6 553/7/6 556/7/6
f 553/14/6 548/14/6 557/14/6
f 556/7/6 553/7/6 557/7/6
f 557/14/6 548/14/6 558/14/6
f 554/6/6 555/6/6 559/6/6
f 555/13/6 556/13/6 560/13/6
f 559/6/6 555/6/6 560/6/6
f 556/6/6 557/6/6 561/6/6
f 560/13/6 556/13/6 561/13/6
f 557/13/6 558/13/6 562/13/6
f 561/6/6 557/6/6 562/6/6
f 562/13/6 558/13/6 563/13/6
