# MagicaVoxel @ Ephtracy

# material
mtllib predator.mtl
usemtl palette

# normals
vn -1 0 0
vn 1 0 0
vn 0 0 1
vn 0 0 -1
vn 0 -1 0
vn 0 1 0

# texcoords
vt 0.0292969 0.5
vt 0.0332031 0.5
vt 0.201172 0.5
vt 0.369141 0.5
vt 0.634766 0.5
vt 0.654297 0.5
vt 0.677734 0.5
vt 0.763672 0.5
vt 0.791016 0.5
vt 0.904297 0.5
vt 0.916016 0.5
vt 0.982422 0.5
vt 0.994141 0.5

# verts
v -3 8 0.5
v -3 8 -0.5
v -3 9 0.5
v -3 9 -0.5
v -2 0 0.5
v -2 0 -0.5
v -2 1 0.5
v -2 1 -0.5
v -2 2 1.5
v -2 2 0.5
v -2 2 -0.5
v -2 2 -1.5
v -2 3 1.5
v -2 3 0.5
v -2 3 -0.5
v -2 3 -1.5
v -2 4 1.5
v -2 4 0.5
v -2 4 -1.5
v -2 5 3.5
v -2 5 1.5
v -2 5 0.5
v -2 5 -0.5
v -2 6 3.5
v -2 6 1.5
v -2 6 0.5
v -2 6 -0.5
v -2 7 1.5
v -2 7 -0.5
v -2 7 -1.5
v -2 8 1.5
v -2 8 0.5
v -2 8 -0.5
v -2 9 1.5
v -2 9 0.5
v -2 9 -0.5
v -2 10 1.5
v -2 10 -1.5
v -2 11 1.5
v -2 11 -1.5
v -1 6 4.5
v -1 6 3.5
v -1 6 2.5
v -1 7 4.5
v -1 7 2.5
v 1 0 0.5
v 1 0 -0.5
v 1 1 0.5
v 1 1 -0.5
v 1 2 0.5
v 1 2 -0.5
v 1 5 3.5
v 1 5 1.5
v 1 6 3.5
v 1 6 1.5
v -1 0 0.5
v -1 0 -0.5
v -1 1 0.5
v -1 1 -0.5
v -1 2 0.5
v -1 2 -0.5
v -1 5 2.5
v -1 5 1.5
v -1 6 2.5
v -1 6 1.5
v 0 5 3.5
v 0 5 2.5
v 0 6 4.5
v 0 6 3.5
v 0 7 4.5
v 0 7 2.5
v 2 0 0.5
v 2 0 -0.5
v 2 1 0.5
v 2 1 -0.5
v 2 2 1.5
v 2 2 0.5
v 2 2 -0.5
v 2 2 -1.5
v 2 3 1.5
v 2 3 0.5
v 2 3 -0.5
v 2 3 -1.5
v 2 4 1.5
v 2 4 0.5
v 2 4 -0.5
v 2 4 -1.5
v 2 5 3.5
v 2 5 1.5
v 2 5 0.5
v 2 5 -0.5
v 2 6 3.5
v 2 6 1.5
v 2 6 0.5
v 2 6 -0.5
v 2 7 1.5
v 2 7 0.5
v 2 7 -1.5
v 2 8 1.5
v 2 8 0.5
v 2 8 -0.5
v 2 9 1.5
v 2 9 0.5
v 2 9 -0.5
v 2 10 1.5
v 2 10 -1.5
v 2 11 1.5
v 2 11 -1.5
v 3 8 0.5
v 3 8 -0.5
v 3 9 0.5
v 3 9 -0.5
v -1 6 4.5
v -1 7 4.5
v 0 6 4.5
v 0 7 4.5
v -2 5 3.5
v -2 6 3.5
v -1 5 3.5
v -1 6 3.5
v 0 5 3.5
v 0 6 3.5
v 1 5 3.5
v 1 6 3.5
v 2 5 3.5
v 2 6 3.5
v -2 2 1.5
v -2 3 1.5
v -2 4 1.5
v -2 5 1.5
v -2 6 1.5
v -2 7 1.5
v -2 8 1.5
v -2 9 1.5
v -2 10 1.5
v -2 11 1.5
v -1 2 1.5
v -1 3 1.5
v -1 4 1.5
v -1 5 1.5
v -1 6 1.5
v -1 7 1.5
v -1 8 1.5
v -1 9 1.5
v 0 2 1.5
v 0 3 1.5
v 0 4 1.5
v 0 5 1.5
v 1 2 1.5
v 1 3 1.5
v 1 4 1.5
v 1 5 1.5
v 1 6 1.5
v 1 7 1.5
v 1 8 1.5
v 1 9 1.5
v 1 10 1.5
v 1 11 1.5
v 2 2 1.5
v 2 3 1.5
v 2 4 1.5
v 2 5 1.5
v 2 6 1.5
v 2 7 1.5
v 2 8 1.5
v 2 9 1.5
v 2 10 1.5
v 2 11 1.5
v -3 8 0.5
v -3 9 0.5
v -2 0 0.5
v -2 1 0.5
v -2 2 0.5
v -2 8 0.5
v -2 9 0.5
v -1 0 0.5
v -1 1 0.5
v -1 2 0.5
v 1 0 0.5
v 1 1 0.5
v 1 2 0.5
v 2 0 0.5
v 2 1 0.5
v 2 2 0.5
v 2 8 0.5
v 2 9 0.5
v 3 8 0.5
v 3 9 0.5
v -1 5 2.5
v -1 6 2.5
v -1 7 2.5
v 0 5 2.5
v 0 7 2.5
v -3 8 -0.5
v -3 9 -0.5
v -2 0 -0.5
v -2 1 -0.5
v -2 2 -0.5
v -2 8 -0.5
v -2 9 -0.5
v -1 0 -0.5
v -1 1 -0.5
v -1 2 -0.5
v 1 0 -0.5
v 1 1 -0.5
v 1 2 -0.5
v 2 0 -0.5
v 2 1 -0.5
v 2 2 -0.5
v 2 8 -0.5
v 2 9 -0.5
v 3 8 -0.5
v 3 9 -0.5
v -2 2 -1.5
v -2 3 -1.5
v -2 4 -1.5
v -2 7 -1.5
v -2 10 -1.5
v -2 11 -1.5
v -1 2 -1.5
v -1 3 -1.5
v -1 4 -1.5
v -1 6 -1.5
v -1 7 -1.5
v 0 2 -1.5
v 0 3 -1.5
v 0 4 -1.5
v 0 5 -1.5
v 0 6 -1.5
v 1 2 -1.5
v 1 3 -1.5
v 1 4 -1.5
v 1 5 -1.5
v 1 6 -1.5
v 1 7 -1.5
v 1 10 -1.5
v 1 11 -1.5
v 2 2 -1.5
v 2 3 -1.5
v 2 4 -1.5
v 2 7 -1.5
v 2 10 -1.5
v 2 11 -1.5
v -2 0 0.5
v -1 0 0.5
v 1 0 0.5
v 2 0 0.5
v -2 0 -0.5
v -1 0 -0.5
v 1 0 -0.5
v 2 0 -0.5
v -2 2 1.5
v -1 2 1.5
v 0 2 1.5
v 1 2 1.5
v 2 2 1.5
v -2 2 0.5
v -1 2 0.5
v 0 2 0.5
v 1 2 0.5
v 2 2 0.5
v -2 2 -0.5
v -1 2 -0.5
v 0 2 -0.5
v 1 2 -0.5
v 2 2 -0.5
v -2 2 -1.5
v -1 2 -1.5
v 0 2 -1.5
v 1 2 -1.5
v 2 2 -1.5
v -2 5 3.5
v -1 5 3.5
v 0 5 3.5
v 1 5 3.5
v 2 5 3.5
v -1 5 2.5
v 0 5 2.5
v -2 5 1.5
v -1 5 1.5
v 1 5 1.5
v 2 5 1.5
v -1 6 4.5
v 0 6 4.5
v -1 6 3.5
v 0 6 3.5
v -3 8 0.5
v -2 8 0.5
v 2 8 0.5
v 3 8 0.5
v -3 8 -0.5
v -2 8 -0.5
v 2 8 -0.5
v 3 8 -0.5
v -2 6 3.5
v -1 6 3.5
v 1 6 3.5
v 2 6 3.5
v -1 6 2.5
v -2 6 1.5
v -1 6 1.5
v 1 6 1.5
v 2 6 1.5
v -1 7 4.5
v 0 7 4.5
v -1 7 2.5
v 0 7 2.5
v -3 9 0.5
v -2 9 0.5
v 2 9 0.5
v 3 9 0.5
v -3 9 -0.5
v -2 9 -0.5
v 2 9 -0.5
v 3 9 -0.5
v -2 11 1.5
v 1 11 1.5
v 2 11 1.5
v -2 11 -1.5
v 1 11 -1.5
v 2 11 -1.5

# faces
f 3/2/1 2/2/1 1/2/1
f 4/2/1 2/2/1 3/2/1
f 7/11/1 6/11/1 5/11/1
f 8/11/1 6/11/1 7/11/1
f 10/6/1 8/6/1 7/6/1
f 11/6/1 8/6/1 10/6/1
f 13/6/1 11/6/1 10/6/1
f 13/6/1 10/6/1 9/6/1
f 14/6/1 11/6/1 13/6/1
f 15/10/1 12/10/1 11/10/1
f 15/6/1 11/6/1 14/6/1
f 16/10/1 12/10/1 15/10/1
f 17/10/1 14/10/1 13/10/1
f 18/6/1 15/6/1 14/6/1
f 18/10/1 14/10/1 17/10/1
f 18/6/1 16/6/1 15/6/1
f 19/6/1 16/6/1 18/6/1
f 21/11/1 18/11/1 17/11/1
f 21/11/1 19/11/1 18/11/1
f 22/11/1 19/11/1 21/11/1
f 23/11/1 19/11/1 22/11/1
f 24/2/1 21/2/1 20/2/1
f 24/2/1 22/2/1 21/2/1
f 25/2/1 22/2/1 24/2/1
f 26/10/1 23/10/1 22/10/1
f 26/2/1 22/2/1 25/2/1
f 27/11/1 19/11/1 23/11/1
f 27/10/1 23/10/1 26/10/1
f 28/11/1 26/11/1 25/11/1
f 28/11/1 27/11/1 26/11/1
f 29/11/1 19/11/1 27/11/1
f 29/11/1 27/11/1 28/11/1
f 30/11/1 19/11/1 29/11/1
f 31/1/1 29/1/1 28/1/1
f 32/1/1 29/1/1 31/1/1
f 33/2/1 30/2/1 29/2/1
f 33/1/1 29/1/1 32/1/1
f 34/13/1 32/13/1 31/13/1
f 35/13/1 32/13/1 34/13/1
f 36/2/1 30/2/1 33/2/1
f 37/2/1 35/2/1 34/2/1
f 37/2/1 36/2/1 35/2/1
f 38/2/1 30/2/1 36/2/1
f 38/2/1 36/2/1 37/2/1
f 39/4/1 38/4/1 37/4/1
f 40/4/1 38/4/1 39/4/1
f 44/12/1 42/12/1 41/12/1
f 44/12/1 43/12/1 42/12/1
f 45/12/1 43/12/1 44/12/1
f 48/11/1 47/11/1 46/11/1
f 49/11/1 47/11/1 48/11/1
f 50/6/1 49/6/1 48/6/1
f 51/6/1 49/6/1 50/6/1
f 54/2/1 53/2/1 52/2/1
f 55/2/1 53/2/1 54/2/1
f 56/11/2 57/11/2 58/11/2
f 58/11/2 57/11/2 59/11/2
f 58/6/2 59/6/2 60/6/2
f 60/6/2 59/6/2 61/6/2
f 62/2/2 63/2/2 64/2/2
f 64/2/2 63/2/2 65/2/2
f 66/12/2 67/12/2 69/12/2
f 68/12/2 69/12/2 70/12/2
f 69/12/2 67/12/2 71/12/2
f 70/12/2 69/12/2 71/12/2
f 72/11/2 73/11/2 74/11/2
f 74/11/2 73/11/2 75/11/2
f 74/6/2 75/6/2 77/6/2
f 77/6/2 75/6/2 78/6/2
f 76/10/2 77/10/2 80/10/2
f 77/5/2 78/5/2 81/5/2
f 80/10/2 77/10/2 81/10/2
f 78/6/2 79/6/2 82/6/2
f 81/5/2 78/5/2 82/5/2
f 82/6/2 79/6/2 83/6/2
f 80/6/2 81/6/2 84/6/2
f 81/5/2 82/5/2 85/5/2
f 84/6/2 81/6/2 85/6/2
f 82/10/2 83/10/2 86/10/2
f 85/5/2 82/5/2 86/5/2
f 86/10/2 83/10/2 87/10/2
f 84/11/2 85/11/2 89/11/2
f 85/11/2 86/11/2 89/11/2
f 86/11/2 87/11/2 89/11/2
f 89/11/2 87/11/2 90/11/2
f 90/11/2 87/11/2 91/11/2
f 88/2/2 89/2/2 92/2/2
f 89/2/2 90/2/2 92/2/2
f 92/2/2 90/2/2 93/2/2
f 90/10/2 91/10/2 94/10/2
f 93/2/2 90/2/2 94/2/2
f 91/11/2 87/11/2 95/11/2
f 94/10/2 91/10/2 95/10/2
f 93/11/2 94/11/2 96/11/2
f 94/11/2 95/11/2 96/11/2
f 96/11/2 95/11/2 97/11/2
f 95/11/2 87/11/2 98/11/2
f 97/11/2 95/11/2 98/11/2
f 96/1/2 97/1/2 99/1/2
f 97/2/2 98/2/2 100/2/2
f 99/1/2 97/1/2 100/1/2
f 100/2/2 98/2/2 101/2/2
f 99/13/2 100/13/2 102/13/2
f 102/13/2 100/13/2 103/13/2
f 101/2/2 98/2/2 104/2/2
f 102/2/2 103/2/2 105/2/2
f 103/2/2 104/2/2 105/2/2
f 104/2/2 98/2/2 106/2/2
f 105/2/2 104/2/2 106/2/2
f 105/3/2 106/3/2 107/3/2
f 107/3/2 106/3/2 108/3/2
f 109/2/2 110/2/2 111/2/2
f 111/2/2 110/2/2 112/2/2
f 115/12/3 114/12/3 113/12/3
f 116/12/3 114/12/3 115/12/3
f 119/2/3 118/2/3 117/2/3
f 120/2/3 118/2/3 119/2/3
f 121/12/3 120/12/3 119/12/3
f 122/12/3 120/12/3 121/12/3
f 125/2/3 124/2/3 123/2/3
f 126/2/3 124/2/3 125/2/3
f 137/6/3 128/6/3 127/6/3
f 138/10/3 129/10/3 128/10/3
f 138/6/3 128/6/3 137/6/3
f 139/11/3 130/11/3 129/11/3
f 139/10/3 129/10/3 138/10/3
f 140/11/3 130/11/3 139/11/3
f 141/11/3 132/11/3 131/11/3
f 142/1/3 133/1/3 132/1/3
f 142/11/3 132/11/3 141/11/3
f 143/13/3 134/13/3 133/13/3
f 143/1/3 133/1/3 142/1/3
f 144/2/3 135/2/3 134/2/3
f 144/13/3 134/13/3 143/13/3
f 145/10/3 138/10/3 137/10/3
f 146/6/3 139/6/3 138/6/3
f 146/10/3 138/10/3 145/10/3
f 147/9/3 140/9/3 139/9/3
f 147/6/3 139/6/3 146/6/3
f 147/9/3 141/9/3 140/9/3
f 148/9/3 141/9/3 147/9/3
f 149/6/3 146/6/3 145/6/3
f 150/10/3 147/10/3 146/10/3
f 150/6/3 146/6/3 149/6/3
f 151/8/3 148/8/3 147/8/3
f 151/10/3 147/10/3 150/10/3
f 152/9/3 141/9/3 148/9/3
f 152/8/3 148/8/3 151/8/3
f 153/2/3 142/2/3 141/2/3
f 153/9/3 141/9/3 152/9/3
f 154/1/3 143/1/3 142/1/3
f 154/2/3 142/2/3 153/2/3
f 155/2/3 144/2/3 143/2/3
f 155/1/3 143/1/3 154/1/3
f 156/2/3 135/2/3 144/2/3
f 156/2/3 144/2/3 155/2/3
f 157/4/3 136/4/3 135/4/3
f 157/2/3 135/2/3 156/2/3
f 158/4/3 136/4/3 157/4/3
f 159/10/3 150/10/3 149/10/3
f 160/6/3 151/6/3 150/6/3
f 160/10/3 150/10/3 159/10/3
f 161/11/3 152/11/3 151/11/3
f 161/6/3 151/6/3 160/6/3
f 162/11/3 152/11/3 161/11/3
f 163/11/3 154/11/3 153/11/3
f 164/1/3 155/1/3 154/1/3
f 164/11/3 154/11/3 163/11/3
f 165/13/3 156/13/3 155/13/3
f 165/1/3 155/1/3 164/1/3
f 166/2/3 157/2/3 156/2/3
f 166/13/3 156/13/3 165/13/3
f 167/3/3 158/3/3 157/3/3
f 167/2/3 157/2/3 166/2/3
f 168/3/3 158/3/3 167/3/3
f 174/2/3 170/2/3 169/2/3
f 175/2/3 170/2/3 174/2/3
f 176/11/3 172/11/3 171/11/3
f 177/6/3 173/6/3 172/6/3
f 177/11/3 172/11/3 176/11/3
f 178/6/3 173/6/3 177/6/3
f 182/11/3 180/11/3 179/11/3
f 183/6/3 181/6/3 180/6/3
f 183/11/3 180/11/3 182/11/3
f 184/6/3 181/6/3 183/6/3
f 187/2/3 186/2/3 185/2/3
f 188/2/3 186/2/3 187/2/3
f 189/12/4 190/12/4 192/12/4
f 190/12/4 191/12/4 192/12/4
f 192/12/4 191/12/4 193/12/4
f 194/2/4 195/2/4 199/2/4
f 199/2/4 195/2/4 200/2/4
f 196/11/4 197/11/4 201/11/4
f 197/6/4 198/6/4 202/6/4
f 201/11/4 197/11/4 202/11/4
f 202/6/4 198/6/4 203/6/4
f 204/11/4 205/11/4 207/11/4
f 205/6/4 206/6/4 208/6/4
f 207/11/4 205/11/4 208/11/4
f 208/6/4 206/6/4 209/6/4
f 210/2/4 211/2/4 212/2/4
f 212/2/4 211/2/4 213/2/4
f 214/10/4 215/10/4 220/10/4
f 215/6/4 216/6/4 221/6/4
f 220/10/4 215/10/4 221/10/4
f 216/11/4 217/11/4 222/11/4
f 221/6/4 216/6/4 222/6/4
f 222/11/4 217/11/4 223/11/4
f 217/2/4 218/2/4 224/2/4
f 223/11/4 217/11/4 224/11/4
f 220/6/4 221/6/4 225/6/4
f 221/10/4 222/10/4 226/10/4
f 225/6/4 221/6/4 226/6/4
f 222/7/4 223/7/4 227/7/4
f 226/10/4 222/10/4 227/10/4
f 227/7/4 223/7/4 228/7/4
f 223/2/4 224/2/4 229/2/4
f 228/7/4 223/7/4 229/7/4
f 225/10/4 226/10/4 230/10/4
f 226/6/4 227/6/4 231/6/4
f 230/10/4 226/10/4 231/10/4
f 227/7/4 228/7/4 232/7/4
f 231/6/4 227/6/4 232/6/4
f 228/6/4 229/6/4 233/6/4
f 232/7/4 228/7/4 233/7/4
f 229/2/4 224/2/4 234/2/4
f 233/6/4 229/6/4 234/6/4
f 224/2/4 218/2/4 235/2/4
f 234/2/4 224/2/4 235/2/4
f 218/4/4 219/4/4 236/4/4
f 235/2/4 218/2/4 236/2/4
f 236/4/4 219/4/4 237/4/4
f 230/6/4 231/6/4 238/6/4
f 231/10/4 232/10/4 239/10/4
f 238/6/4 231/6/4 239/6/4
f 234/11/4 235/11/4 240/11/4
f 239/10/4 232/10/4 240/10/4
f 233/11/4 234/11/4 240/11/4
f 232/11/4 233/11/4 240/11/4
f 235/2/4 236/2/4 241/2/4
f 240/11/4 235/11/4 241/11/4
f 236/3/4 237/3/4 242/3/4
f 241/2/4 236/2/4 242/2/4
f 242/3/4 237/3/4 243/3/4
f 248/11/5 245/11/5 244/11/5
f 249/11/5 245/11/5 248/11/5
f 250/11/5 247/11/5 246/11/5
f 251/11/5 247/11/5 250/11/5
f 257/6/5 253/6/5 252/6/5
f 258/10/5 254/10/5 253/10/5
f 258/6/5 253/6/5 257/6/5
f 259/6/5 255/6/5 254/6/5
f 259/10/5 254/10/5 258/10/5
f 260/10/5 256/10/5 255/10/5
f 260/6/5 255/6/5 259/6/5
f 261/10/5 256/10/5 260/10/5
f 263/10/5 259/10/5 258/10/5
f 263/10/5 260/10/5 259/10/5
f 264/10/5 260/10/5 263/10/5
f 265/10/5 260/10/5 264/10/5
f 267/10/5 263/10/5 262/10/5
f 268/6/5 264/6/5 263/6/5
f 268/10/5 263/10/5 267/10/5
f 269/10/5 265/10/5 264/10/5
f 269/6/5 264/6/5 268/6/5
f 270/6/5 266/6/5 265/6/5
f 270/10/5 265/10/5 269/10/5
f 271/6/5 266/6/5 270/6/5
f 277/2/5 273/2/5 272/2/5
f 277/12/5 274/12/5 273/12/5
f 278/12/5 274/12/5 277/12/5
f 279/2/5 277/2/5 272/2/5
f 280/2/5 277/2/5 279/2/5
f 281/2/5 276/2/5 275/2/5
f 282/2/5 276/2/5 281/2/5
f 285/12/5 284/12/5 283/12/5
f 286/12/5 284/12/5 285/12/5
f 291/2/5 288/2/5 287/2/5
f 292/2/5 288/2/5 291/2/5
f 293/2/5 290/2/5 289/2/5
f 294/2/5 290/2/5 293/2/5
f 295/2/6 296/2/6 299/2/6
f 295/2/6 299/2/6 300/2/6
f 300/2/6 299/2/6 301/2/6
f 297/2/6 298/2/6 302/2/6
f 302/2/6 298/2/6 303/2/6
f 304/12/6 305/12/6 306/12/6
f 306/12/6 305/12/6 307/12/6
f 308/2/6 309/2/6 312/2/6
f 312/2/6 309/2/6 313/2/6
f 310/2/6 311/2/6 314/2/6
f 314/2/6 311/2/6 315/2/6
f 316/4/6 317/4/6 319/4/6
f 317/3/6 318/3/6 320/3/6
f 319/4/6 317/4/6 320/4/6
f 320/3/6 318/3/6 321/3/6
