# MagicaVoxel @ Ephtracy

# material
mtllib predator-nogun-03.mtl
usemtl palette

# normals
vn -1 0 0
vn 1 0 0
vn 0 0 1
vn 0 0 -1
vn 0 -1 0
vn 0 1 0

# texcoords
vt 0.0292969 0.5
vt 0.0332031 0.5
vt 0.201172 0.5
vt 0.369141 0.5
vt 0.634766 0.5
vt 0.654297 0.5
vt 0.677734 0.5
vt 0.763672 0.5
vt 0.791016 0.5
vt 0.876953 0.5
vt 0.904297 0.5
vt 0.916016 0.5
vt 0.994141 0.5

# verts
v -3 3 0.5
v -3 3 -0.5
v -3 6 0.5
v -3 6 -0.5
v -3 8 0.5
v -3 8 -0.5
v -3 9 0.5
v -3 9 -0.5
v -2 0 -0.5
v -2 0 -1.5
v -2 1 -0.5
v -2 1 -1.5
v -2 2 1.5
v -2 2 -0.5
v -2 2 -1.5
v -2 3 1.5
v -2 3 0.5
v -2 3 -0.5
v -2 3 -1.5
v -2 4 1.5
v -2 4 0.5
v -2 4 -0.5
v -2 4 -1.5
v -2 5 1.5
v -2 5 0.5
v -2 6 1.5
v -2 6 0.5
v -2 6 -0.5
v -2 7 1.5
v -2 7 -0.5
v -2 7 -1.5
v -2 8 1.5
v -2 8 0.5
v -2 8 -0.5
v -2 9 1.5
v -2 9 0.5
v -2 9 -0.5
v -2 10 1.5
v -2 10 -1.5
v -2 11 1.5
v -2 11 -1.5
v 1 0 1.5
v 1 0 0.5
v 1 1 1.5
v 1 1 0.5
v 1 2 1.5
v 1 2 0.5
v -1 0 -0.5
v -1 0 -1.5
v -1 1 -0.5
v -1 1 -1.5
v -1 2 -0.5
v -1 2 -1.5
v 2 0 1.5
v 2 0 0.5
v 2 1 1.5
v 2 1 0.5
v 2 2 1.5
v 2 2 0.5
v 2 2 -0.5
v 2 2 -1.5
v 2 3 1.5
v 2 3 0.5
v 2 3 -0.5
v 2 3 -1.5
v 2 4 1.5
v 2 4 0.5
v 2 4 -0.5
v 2 4 -1.5
v 2 5 1.5
v 2 5 0.5
v 2 6 1.5
v 2 6 0.5
v 2 6 -0.5
v 2 7 1.5
v 2 7 0.5
v 2 7 -1.5
v 2 8 1.5
v 2 8 0.5
v 2 8 -0.5
v 2 9 1.5
v 2 9 0.5
v 2 9 -0.5
v 2 10 1.5
v 2 10 -1.5
v 2 11 1.5
v 2 11 -1.5
v 3 3 0.5
v 3 3 -0.5
v 3 6 0.5
v 3 6 -0.5
v 3 8 0.5
v 3 8 -0.5
v 3 9 0.5
v 3 9 -0.5
v -2 2 1.5
v -2 3 1.5
v -2 4 1.5
v -2 5 1.5
v -2 6 1.5
v -2 7 1.5
v -2 8 1.5
v -2 9 1.5
v -2 10 1.5
v -2 11 1.5
v -1 2 1.5
v -1 3 1.5
v -1 4 1.5
v -1 5 1.5
v -1 6 1.5
v -1 7 1.5
v -1 8 1.5
v -1 9 1.5
v 0 2 1.5
v 0 3 1.5
v 0 4 1.5
v 0 5 1.5
v 1 0 1.5
v 1 1 1.5
v 1 2 1.5
v 1 3 1.5
v 1 4 1.5
v 1 5 1.5
v 1 6 1.5
v 1 7 1.5
v 1 8 1.5
v 1 9 1.5
v 1 10 1.5
v 1 11 1.5
v 2 0 1.5
v 2 1 1.5
v 2 2 1.5
v 2 3 1.5
v 2 4 1.5
v 2 5 1.5
v 2 6 1.5
v 2 7 1.5
v 2 8 1.5
v 2 9 1.5
v 2 10 1.5
v 2 11 1.5
v -3 3 0.5
v -3 6 0.5
v -3 8 0.5
v -3 9 0.5
v -2 3 0.5
v -2 4 0.5
v -2 5 0.5
v -2 6 0.5
v -2 8 0.5
v -2 9 0.5
v 2 3 0.5
v 2 4 0.5
v 2 5 0.5
v 2 6 0.5
v 2 8 0.5
v 2 9 0.5
v 3 3 0.5
v 3 6 0.5
v 3 8 0.5
v 3 9 0.5
v -2 0 -0.5
v -2 1 -0.5
v -2 2 -0.5
v -1 0 -0.5
v -1 1 -0.5
v -1 2 -0.5
v 1 0 0.5
v 1 1 0.5
v 1 2 0.5
v 2 0 0.5
v 2 1 0.5
v 2 2 0.5
v -3 3 -0.5
v -3 6 -0.5
v -3 8 -0.5
v -3 9 -0.5
v -2 3 -0.5
v -2 4 -0.5
v -2 6 -0.5
v -2 8 -0.5
v -2 9 -0.5
v 2 3 -0.5
v 2 4 -0.5
v 2 6 -0.5
v 2 8 -0.5
v 2 9 -0.5
v 3 3 -0.5
v 3 6 -0.5
v 3 8 -0.5
v 3 9 -0.5
v -2 0 -1.5
v -2 1 -1.5
v -2 2 -1.5
v -2 3 -1.5
v -2 4 -1.5
v -2 7 -1.5
v -2 10 -1.5
v -2 11 -1.5
v -1 0 -1.5
v -1 1 -1.5
v -1 2 -1.5
v -1 3 -1.5
v -1 4 -1.5
v -1 6 -1.5
v -1 7 -1.5
v 0 2 -1.5
v 0 3 -1.5
v 0 4 -1.5
v 0 5 -1.5
v 0 6 -1.5
v 1 2 -1.5
v 1 3 -1.5
v 1 4 -1.5
v 1 5 -1.5
v 1 6 -1.5
v 1 7 -1.5
v 1 10 -1.5
v 1 11 -1.5
v 2 2 -1.5
v 2 3 -1.5
v 2 4 -1.5
v 2 7 -1.5
v 2 10 -1.5
v 2 11 -1.5
v 1 0 1.5
v 2 0 1.5
v 1 0 0.5
v 2 0 0.5
v -2 0 -0.5
v -1 0 -0.5
v -2 0 -1.5
v -1 0 -1.5
v -2 2 1.5
v -1 2 1.5
v 0 2 1.5
v 1 2 1.5
v 0 2 0.5
v 1 2 0.5
v 2 2 0.5
v -2 2 -0.5
v -1 2 -0.5
v 0 2 -0.5
v 1 2 -0.5
v 2 2 -0.5
v -1 2 -1.5
v 0 2 -1.5
v 1 2 -1.5
v 2 2 -1.5
v -3 3 0.5
v -2 3 0.5
v 2 3 0.5
v 3 3 0.5
v -3 3 -0.5
v -2 3 -0.5
v 2 3 -0.5
v 3 3 -0.5
v -3 8 0.5
v -2 8 0.5
v 2 8 0.5
v 3 8 0.5
v -3 8 -0.5
v -2 8 -0.5
v 2 8 -0.5
v 3 8 -0.5
v -3 6 0.5
v -2 6 0.5
v 2 6 0.5
v 3 6 0.5
v -3 6 -0.5
v -2 6 -0.5
v 2 6 -0.5
v 3 6 -0.5
v -3 9 0.5
v -2 9 0.5
v 2 9 0.5
v 3 9 0.5
v -3 9 -0.5
v -2 9 -0.5
v 2 9 -0.5
v 3 9 -0.5
v -2 11 1.5
v 1 11 1.5
v 2 11 1.5
v -2 11 -1.5
v 1 11 -1.5
v 2 11 -1.5

# faces
f 3/2/1 2/2/1 1/2/1
f 4/2/1 2/2/1 3/2/1
f 7/2/1 6/2/1 5/2/1
f 8/2/1 6/2/1 7/2/1
f 11/10/1 10/10/1 9/10/1
f 12/10/1 10/10/1 11/10/1
f 14/6/1 12/6/1 11/6/1
f 15/6/1 12/6/1 14/6/1
f 16/6/1 14/6/1 13/6/1
f 17/6/1 14/6/1 16/6/1
f 18/11/1 15/11/1 14/11/1
f 18/6/1 14/6/1 17/6/1
f 19/11/1 15/11/1 18/11/1
f 20/11/1 17/11/1 16/11/1
f 21/11/1 17/11/1 20/11/1
f 22/6/1 19/6/1 18/6/1
f 23/6/1 19/6/1 22/6/1
f 24/12/1 21/12/1 20/12/1
f 25/12/1 21/12/1 24/12/1
f 26/9/1 25/9/1 24/9/1
f 27/9/1 25/9/1 26/9/1
f 28/12/1 23/12/1 22/12/1
f 29/12/1 27/12/1 26/12/1
f 29/12/1 28/12/1 27/12/1
f 30/12/1 23/12/1 28/12/1
f 30/12/1 28/12/1 29/12/1
f 31/12/1 23/12/1 30/12/1
f 32/1/1 30/1/1 29/1/1
f 33/1/1 30/1/1 32/1/1
f 34/2/1 31/2/1 30/2/1
f 34/1/1 30/1/1 33/1/1
f 35/13/1 33/13/1 32/13/1
f 36/13/1 33/13/1 35/13/1
f 37/2/1 31/2/1 34/2/1
f 38/2/1 36/2/1 35/2/1
f 38/2/1 37/2/1 36/2/1
f 39/2/1 31/2/1 37/2/1
f 39/2/1 37/2/1 38/2/1
f 40/4/1 39/4/1 38/4/1
f 41/4/1 39/4/1 40/4/1
f 44/10/1 43/10/1 42/10/1
f 45/10/1 43/10/1 44/10/1
f 46/6/1 45/6/1 44/6/1
f 47/6/1 45/6/1 46/6/1
f 48/10/2 49/10/2 50/10/2
f 50/10/2 49/10/2 51/10/2
f 50/6/2 51/6/2 52/6/2
f 52/6/2 51/6/2 53/6/2
f 54/10/2 55/10/2 56/10/2
f 56/10/2 55/10/2 57/10/2
f 56/6/2 57/6/2 58/6/2
f 58/6/2 57/6/2 59/6/2
f 58/11/2 59/11/2 62/11/2
f 59/11/2 60/11/2 62/11/2
f 62/11/2 60/11/2 63/11/2
f 60/6/2 61/6/2 64/6/2
f 63/11/2 60/11/2 64/11/2
f 64/6/2 61/6/2 65/6/2
f 62/6/2 63/6/2 66/6/2
f 66/6/2 63/6/2 67/6/2
f 64/11/2 65/11/2 68/11/2
f 68/11/2 65/11/2 69/11/2
f 66/12/2 67/12/2 70/12/2
f 70/12/2 67/12/2 71/12/2
f 70/9/2 71/9/2 72/9/2
f 72/9/2 71/9/2 73/9/2
f 68/12/2 69/12/2 74/12/2
f 72/12/2 73/12/2 75/12/2
f 73/12/2 74/12/2 75/12/2
f 75/12/2 74/12/2 76/12/2
f 74/12/2 69/12/2 77/12/2
f 76/12/2 74/12/2 77/12/2
f 75/1/2 76/1/2 78/1/2
f 76/2/2 77/2/2 79/2/2
f 78/1/2 76/1/2 79/1/2
f 79/2/2 77/2/2 80/2/2
f 78/13/2 79/13/2 81/13/2
f 81/13/2 79/13/2 82/13/2
f 80/2/2 77/2/2 83/2/2
f 81/2/2 82/2/2 84/2/2
f 82/2/2 83/2/2 84/2/2
f 83/2/2 77/2/2 85/2/2
f 84/2/2 83/2/2 85/2/2
f 84/3/2 85/3/2 86/3/2
f 86/3/2 85/3/2 87/3/2
f 88/2/2 89/2/2 90/2/2
f 90/2/2 89/2/2 91/2/2
f 92/2/2 93/2/2 94/2/2
f 94/2/2 93/2/2 95/2/2
f 106/6/3 97/6/3 96/6/3
f 107/11/3 98/11/3 97/11/3
f 107/6/3 97/6/3 106/6/3
f 108/12/3 99/12/3 98/12/3
f 108/11/3 98/11/3 107/11/3
f 109/9/3 100/9/3 99/9/3
f 109/12/3 99/12/3 108/12/3
f 110/12/3 101/12/3 100/12/3
f 110/9/3 100/9/3 109/9/3
f 111/1/3 102/1/3 101/1/3
f 111/12/3 101/12/3 110/12/3
f 112/13/3 103/13/3 102/13/3
f 112/1/3 102/1/3 111/1/3
f 113/2/3 104/2/3 103/2/3
f 113/13/3 103/13/3 112/13/3
f 114/11/3 107/11/3 106/11/3
f 115/6/3 108/6/3 107/6/3
f 115/11/3 107/11/3 114/11/3
f 116/9/3 109/9/3 108/9/3
f 116/6/3 108/6/3 115/6/3
f 116/9/3 110/9/3 109/9/3
f 117/9/3 110/9/3 116/9/3
f 120/6/3 115/6/3 114/6/3
f 121/11/3 116/11/3 115/11/3
f 121/6/3 115/6/3 120/6/3
f 122/8/3 117/8/3 116/8/3
f 122/11/3 116/11/3 121/11/3
f 123/9/3 110/9/3 117/9/3
f 123/8/3 117/8/3 122/8/3
f 124/2/3 111/2/3 110/2/3
f 124/9/3 110/9/3 123/9/3
f 125/1/3 112/1/3 111/1/3
f 125/2/3 111/2/3 124/2/3
f 126/2/3 113/2/3 112/2/3
f 126/1/3 112/1/3 125/1/3
f 127/2/3 104/2/3 113/2/3
f 127/2/3 113/2/3 126/2/3
f 128/4/3 105/4/3 104/4/3
f 128/2/3 104/2/3 127/2/3
f 129/4/3 105/4/3 128/4/3
f 130/10/3 119/10/3 118/10/3
f 131/6/3 120/6/3 119/6/3
f 131/10/3 119/10/3 130/10/3
f 132/11/3 121/11/3 120/11/3
f 132/6/3 120/6/3 131/6/3
f 133/6/3 122/6/3 121/6/3
f 133/11/3 121/11/3 132/11/3
f 134/12/3 123/12/3 122/12/3
f 134/6/3 122/6/3 133/6/3
f 135/9/3 124/9/3 123/9/3
f 135/12/3 123/12/3 134/12/3
f 136/12/3 125/12/3 124/12/3
f 136/9/3 124/9/3 135/9/3
f 137/1/3 126/1/3 125/1/3
f 137/12/3 125/12/3 136/12/3
f 138/13/3 127/13/3 126/13/3
f 138/1/3 126/1/3 137/1/3
f 139/2/3 128/2/3 127/2/3
f 139/13/3 127/13/3 138/13/3
f 140/3/3 129/3/3 128/3/3
f 140/2/3 128/2/3 139/2/3
f 141/3/3 129/3/3 140/3/3
f 146/2/3 143/2/3 142/2/3
f 147/2/3 143/2/3 146/2/3
f 148/2/3 143/2/3 147/2/3
f 149/2/3 143/2/3 148/2/3
f 150/2/3 145/2/3 144/2/3
f 151/2/3 145/2/3 150/2/3
f 158/2/3 153/2/3 152/2/3
f 158/2/3 154/2/3 153/2/3
f 158/2/3 155/2/3 154/2/3
f 159/2/3 155/2/3 158/2/3
f 160/2/3 157/2/3 156/2/3
f 161/2/3 157/2/3 160/2/3
f 165/10/3 163/10/3 162/10/3
f 166/6/3 164/6/3 163/6/3
f 166/10/3 163/10/3 165/10/3
f 167/6/3 164/6/3 166/6/3
f 168/10/4 169/10/4 171/10/4
f 169/6/4 170/6/4 172/6/4
f 171/10/4 169/10/4 172/10/4
f 172/6/4 170/6/4 173/6/4
f 174/2/4 175/2/4 178/2/4
f 178/2/4 175/2/4 179/2/4
f 179/2/4 175/2/4 180/2/4
f 176/2/4 177/2/4 181/2/4
f 181/2/4 177/2/4 182/2/4
f 183/2/4 184/2/4 188/2/4
f 184/2/4 185/2/4 188/2/4
f 188/2/4 185/2/4 189/2/4
f 186/2/4 187/2/4 190/2/4
f 190/2/4 187/2/4 191/2/4
f 192/10/4 193/10/4 200/10/4
f 193/6/4 194/6/4 201/6/4
f 200/10/4 193/10/4 201/10/4
f 194/11/4 195/11/4 202/11/4
f 201/6/4 194/6/4 202/6/4
f 195/6/4 196/6/4 203/6/4
f 202/11/4 195/11/4 203/11/4
f 196/12/4 197/12/4 204/12/4
f 203/6/4 196/6/4 204/6/4
f 204/12/4 197/12/4 205/12/4
f 197/2/4 198/2/4 206/2/4
f 205/12/4 197/12/4 206/12/4
f 202/6/4 203/6/4 207/6/4
f 203/11/4 204/11/4 208/11/4
f 207/6/4 203/6/4 208/6/4
f 204/7/4 205/7/4 209/7/4
f 208/11/4 204/11/4 209/11/4
f 209/7/4 205/7/4 210/7/4
f 205/2/4 206/2/4 211/2/4
f 210/7/4 205/7/4 211/7/4
f 207/11/4 208/11/4 212/11/4
f 208/6/4 209/6/4 213/6/4
f 212/11/4 208/11/4 213/11/4
f 209/7/4 210/7/4 214/7/4
f 213/6/4 209/6/4 214/6/4
f 210/6/4 211/6/4 215/6/4
f 214/7/4 210/7/4 215/7/4
f 211/2/4 206/2/4 216/2/4
f 215/6/4 211/6/4 216/6/4
f 206/2/4 198/2/4 217/2/4
f 216/2/4 206/2/4 217/2/4
f 198/4/4 199/4/4 218/4/4
f 217/2/4 198/2/4 218/2/4
f 218/4/4 199/4/4 219/4/4
f 212/6/4 213/6/4 220/6/4
f 213/11/4 214/11/4 221/11/4
f 220/6/4 213/6/4 221/6/4
f 216/12/4 217/12/4 222/12/4
f 221/11/4 214/11/4 222/11/4
f 215/12/4 216/12/4 222/12/4
f 214/12/4 215/12/4 222/12/4
f 217/2/4 218/2/4 223/2/4
f 222/12/4 217/12/4 223/12/4
f 218/3/4 219/3/4 224/3/4
f 223/2/4 218/2/4 224/2/4
f 224/3/4 219/3/4 225/3/4
f 228/10/5 227/10/5 226/10/5
f 229/10/5 227/10/5 228/10/5
f 232/10/5 231/10/5 230/10/5
f 233/10/5 231/10/5 232/10/5
f 238/11/5 236/11/5 235/11/5
f 238/6/5 237/6/5 236/6/5
f 239/6/5 237/6/5 238/6/5
f 241/6/5 235/6/5 234/6/5
f 242/11/5 240/11/5 239/11/5
f 242/6/5 235/6/5 241/6/5
f 242/11/5 238/11/5 235/11/5
f 242/11/5 239/11/5 238/11/5
f 243/11/5 240/11/5 242/11/5
f 244/11/5 240/11/5 243/11/5
f 245/11/5 240/11/5 244/11/5
f 246/6/5 243/6/5 242/6/5
f 247/11/5 244/11/5 243/11/5
f 247/6/5 243/6/5 246/6/5
f 248/6/5 245/6/5 244/6/5
f 248/11/5 244/11/5 247/11/5
f 249/6/5 245/6/5 248/6/5
f 254/2/5 251/2/5 250/2/5
f 255/2/5 251/2/5 254/2/5
f 256/2/5 253/2/5 252/2/5
f 257/2/5 253/2/5 256/2/5
f 262/2/5 259/2/5 258/2/5
f 263/2/5 259/2/5 262/2/5
f 264/2/5 261/2/5 260/2/5
f 265/2/5 261/2/5 264/2/5
f 266/2/6 267/2/6 270/2/6
f 270/2/6 267/2/6 271/2/6
f 268/2/6 269/2/6 272/2/6
f 272/2/6 269/2/6 273/2/6
f 274/2/6 275/2/6 278/2/6
f 278/2/6 275/2/6 279/2/6
f 276/2/6 277/2/6 280/2/6
f 280/2/6 277/2/6 281/2/6
f 282/4/6 283/4/6 285/4/6
f 283/3/6 284/3/6 286/3/6
f 285/4/6 283/4/6 286/4/6
f 286/3/6 284/3/6 287/3/6
