# MagicaVoxel @ Ephtracy

# material
mtllib camera.mtl
usemtl palette

# normals
vn -1 0 0
vn 1 0 0
vn 0 0 1
vn 0 0 -1
vn 0 -1 0
vn 0 1 0

# texcoords
vt 0.841797 0.5
vt 0.958984 0.5
vt 0.970703 0.5
vt 0.974609 0.5
vt 0.990234 0.5
vt 0.994141 0.5

# verts
v -5 7 8
v -5 7 7
v -5 7 6
v -5 7 -5
v -5 9 9
v -5 9 8
v -5 10 10
v -5 10 9
v -5 11 11
v -5 11 10
v -5 12 11
v -5 12 7
v -5 12 6
v -5 12 -5
v -4 6 8
v -4 6 7
v -4 6 6
v -4 6 -5
v -4 7 8
v -4 7 7
v -4 7 6
v -4 7 -5
v -4 12 12
v -4 12 11
v -4 12 7
v -4 12 6
v -4 12 -5
v -4 13 12
v -4 13 7
v -4 13 6
v -4 13 -5
v -3 3 -4
v -3 3 -5
v -3 4 -3
v -3 4 -4
v -3 5 -2
v -3 5 -3
v -3 5 -4
v -3 6 -2
v -3 6 -3
v -3 6 -4
v -3 6 -5
v -3 9 8
v -3 9 7
v -3 10 8
v -3 10 7
v -2 8 8
v -2 8 7
v -2 9 8
v -2 9 7
v -2 10 8
v -2 10 7
v -2 11 8
v -2 11 7
v -1 3 -4
v -1 3 -5
v -1 4 -4
v -1 4 -5
v 0 7 8
v 0 7 7
v 0 8 8
v 0 8 7
v 0 11 8
v 0 11 7
v 0 12 8
v 0 12 7
v 1 8 8
v 1 8 7
v 1 9 9
v 1 9 8
v 1 10 10
v 1 10 9
v 1 11 11
v 1 11 10
v 1 11 8
v 1 11 7
v 1 12 11
v 1 12 8
v -4 8 8
v -4 8 7
v -4 9 9
v -4 9 8
v -4 10 10
v -4 10 9
v -4 11 11
v -4 11 10
v -4 11 8
v -4 11 7
v -4 12 11
v -4 12 8
v -3 7 8
v -3 7 7
v -3 8 8
v -3 8 7
v -3 11 8
v -3 11 7
v -3 12 8
v -3 12 7
v -2 3 -4
v -2 3 -5
v -2 4 -4
v -2 4 -5
v -1 8 8
v -1 8 7
v -1 9 8
v -1 9 7
v -1 10 8
v -1 10 7
v -1 11 8
v -1 11 7
v 0 3 -4
v 0 3 -5
v 0 4 -3
v 0 4 -4
v 0 5 -2
v 0 5 -3
v 0 6 -2
v 0 6 -5
v 0 9 8
v 0 9 7
v 0 10 8
v 0 10 7
v 1 6 8
v 1 6 7
v 1 6 6
v 1 6 -5
v 1 7 8
v 1 7 7
v 1 7 6
v 1 7 -5
v 1 12 12
v 1 12 11
v 1 12 7
v 1 12 6
v 1 12 -5
v 1 13 12
v 1 13 7
v 1 13 6
v 1 13 -5
v 2 7 8
v 2 7 7
v 2 7 6
v 2 7 -5
v 2 9 9
v 2 9 8
v 2 10 10
v 2 10 9
v 2 11 11
v 2 11 10
v 2 12 11
v 2 12 7
v 2 12 6
v 2 12 -5
v -4 12 12
v -4 13 12
v 1 12 12
v 1 13 12
v -5 11 11
v -5 12 11
v -4 11 11
v -4 12 11
v 1 11 11
v 1 12 11
v 2 11 11
v 2 12 11
v -5 10 10
v -5 11 10
v -4 10 10
v -4 11 10
v 1 10 10
v 1 11 10
v 2 10 10
v 2 11 10
v -5 9 9
v -5 10 9
v -4 9 9
v -4 10 9
v 1 9 9
v 1 10 9
v 2 9 9
v 2 10 9
v -5 7 8
v -5 9 8
v -4 6 8
v -4 7 8
v -4 8 8
v -4 9 8
v -4 11 8
v -4 12 8
v -3 7 8
v -3 8 8
v -3 9 8
v -3 10 8
v -3 11 8
v -3 12 8
v -2 8 8
v -2 9 8
v -2 10 8
v -2 11 8
v -1 8 8
v -1 9 8
v -1 10 8
v -1 11 8
v 0 7 8
v 0 8 8
v 0 9 8
v 0 10 8
v 0 11 8
v 0 12 8
v 1 6 8
v 1 7 8
v 1 8 8
v 1 9 8
v 1 11 8
v 1 12 8
v 2 7 8
v 2 9 8
v -4 8 7
v -4 11 7
v -3 7 7
v -3 8 7
v -3 9 7
v -3 10 7
v -3 11 7
v -3 12 7
v -2 8 7
v -2 9 7
v -2 10 7
v -2 11 7
v -1 8 7
v -1 9 7
v -1 10 7
v -1 11 7
v 0 7 7
v 0 8 7
v 0 9 7
v 0 10 7
v 0 11 7
v 0 12 7
v 1 8 7
v 1 11 7
v -3 5 -2
v -3 6 -2
v 0 5 -2
v 0 6 -2
v -3 4 -3
v -3 5 -3
v 0 4 -3
v 0 5 -3
v -3 3 -4
v -3 4 -4
v -2 3 -4
v -2 4 -4
v -1 3 -4
v -1 4 -4
v 0 3 -4
v 0 4 -4
v -5 7 -5
v -5 12 -5
v -4 6 -5
v -4 7 -5
v -4 12 -5
v -4 13 -5
v -3 3 -5
v -3 6 -5
v -2 3 -5
v -2 4 -5
v -1 3 -5
v -1 4 -5
v 0 3 -5
v 0 6 -5
v 1 6 -5
v 1 7 -5
v 1 12 -5
v 1 13 -5
v 2 7 -5
v 2 12 -5
v -3 3 -4
v -2 3 -4
v -1 3 -4
v 0 3 -4
v -3 3 -5
v -2 3 -5
v -1 3 -5
v 0 3 -5
v -3 4 -3
v 0 4 -3
v -3 4 -4
v -2 4 -4
v -1 4 -4
v 0 4 -4
v -2 4 -5
v -1 4 -5
v -3 5 -2
v 0 5 -2
v -3 5 -3
v 0 5 -3
v -4 6 8
v 1 6 8
v -4 6 7
v 1 6 7
v -4 6 6
v 1 6 6
v -3 6 -2
v 0 6 -2
v -3 6 -3
v -3 6 -4
v -4 6 -5
v -3 6 -5
v 0 6 -5
v 1 6 -5
v -5 7 8
v -4 7 8
v 1 7 8
v 2 7 8
v -5 7 7
v -4 7 7
v 1 7 7
v 2 7 7
v -5 7 6
v -4 7 6
v 1 7 6
v 2 7 6
v -5 7 -5
v -4 7 -5
v 1 7 -5
v 2 7 -5
v -2 8 8
v -1 8 8
v -2 8 7
v -1 8 7
v -5 9 9
v -4 9 9
v 1 9 9
v 2 9 9
v -5 9 8
v -4 9 8
v -3 9 8
v -2 9 8
v -1 9 8
v 0 9 8
v 1 9 8
v 2 9 8
v -3 9 7
v -2 9 7
v -1 9 7
v 0 9 7
v -5 10 10
v -4 10 10
v 1 10 10
v 2 10 10
v -5 10 9
v -4 10 9
v 1 10 9
v 2 10 9
v -5 11 11
v -4 11 11
v 1 11 11
v 2 11 11
v -5 11 10
v -4 11 10
v 1 11 10
v 2 11 10
v -4 11 8
v -3 11 8
v 0 11 8
v 1 11 8
v -4 11 7
v -3 11 7
v 0 11 7
v 1 11 7
v -4 12 12
v 1 12 12
v -4 12 11
v 1 12 11
v -4 12 8
v -3 12 8
v 0 12 8
v 1 12 8
v -3 12 7
v 0 12 7
v -3 7 8
v 0 7 8
v -3 7 7
v 0 7 7
v -4 8 8
v -3 8 8
v 0 8 8
v 1 8 8
v -4 8 7
v -3 8 7
v 0 8 7
v 1 8 7
v -3 10 8
v -2 10 8
v -1 10 8
v 0 10 8
v -3 10 7
v -2 10 7
v -1 10 7
v 0 10 7
v -2 11 8
v -1 11 8
v -2 11 7
v -1 11 7
v -5 12 11
v -4 12 11
v 1 12 11
v 2 12 11
v -5 12 7
v -4 12 7
v 1 12 7
v 2 12 7
v -5 12 6
v -4 12 6
v 1 12 6
v 2 12 6
v -5 12 -5
v -4 12 -5
v 1 12 -5
v 2 12 -5
v -4 13 12
v 1 13 12
v -4 13 7
v 1 13 7
v -4 13 6
v 1 13 6
v -4 13 -5
v 1 13 -5

# faces
f 6/3/1 2/3/1 1/3/1
f 8/3/1 6/3/1 5/3/1
f 10/3/1 8/3/1 7/3/1
f 11/3/1 10/3/1 9/3/1
f 12/4/1 3/4/1 2/4/1
f 12/3/1 10/3/1 11/3/1
f 12/3/1 2/3/1 6/3/1
f 12/3/1 8/3/1 10/3/1
f 12/3/1 6/3/1 8/3/1
f 13/2/1 4/2/1 3/2/1
f 13/4/1 3/4/1 12/4/1
f 14/2/1 4/2/1 13/2/1
f 19/3/1 16/3/1 15/3/1
f 20/4/1 17/4/1 16/4/1
f 20/3/1 16/3/1 19/3/1
f 21/2/1 18/2/1 17/2/1
f 21/4/1 17/4/1 20/4/1
f 22/2/1 18/2/1 21/2/1
f 28/3/1 24/3/1 23/3/1
f 28/3/1 25/3/1 24/3/1
f 29/4/1 26/4/1 25/4/1
f 29/3/1 25/3/1 28/3/1
f 30/2/1 27/2/1 26/2/1
f 30/4/1 26/4/1 29/4/1
f 31/2/1 27/2/1 30/2/1
f 35/5/1 33/5/1 32/5/1
f 37/5/1 35/5/1 34/5/1
f 38/5/1 33/5/1 35/5/1
f 38/5/1 35/5/1 37/5/1
f 39/5/1 37/5/1 36/5/1
f 40/6/1 38/6/1 37/6/1
f 40/5/1 37/5/1 39/5/1
f 41/5/1 33/5/1 38/5/1
f 41/6/1 38/6/1 40/6/1
f 42/5/1 33/5/1 41/5/1
f 45/1/1 44/1/1 43/1/1
f 46/1/1 44/1/1 45/1/1
f 49/1/1 48/1/1 47/1/1
f 50/1/1 48/1/1 49/1/1
f 53/1/1 52/1/1 51/1/1
f 54/1/1 52/1/1 53/1/1
f 57/5/1 56/5/1 55/5/1
f 58/5/1 56/5/1 57/5/1
f 61/3/1 60/3/1 59/3/1
f 62/3/1 60/3/1 61/3/1
f 65/3/1 64/3/1 63/3/1
f 66/3/1 64/3/1 65/3/1
f 70/3/1 68/3/1 67/3/1
f 72/3/1 70/3/1 69/3/1
f 74/3/1 72/3/1 71/3/1
f 75/3/1 68/3/1 70/3/1
f 75/3/1 70/3/1 72/3/1
f 75/3/1 72/3/1 74/3/1
f 76/3/1 68/3/1 75/3/1
f 77/3/1 74/3/1 73/3/1
f 77/3/1 75/3/1 74/3/1
f 78/3/1 75/3/1 77/3/1
f 79/3/2 80/3/2 82/3/2
f 81/3/2 82/3/2 84/3/2
f 83/3/2 84/3/2 86/3/2
f 82/3/2 80/3/2 87/3/2
f 84/3/2 82/3/2 87/3/2
f 86/3/2 84/3/2 87/3/2
f 87/3/2 80/3/2 88/3/2
f 85/3/2 86/3/2 89/3/2
f 86/3/2 87/3/2 89/3/2
f 89/3/2 87/3/2 90/3/2
f 91/3/2 92/3/2 93/3/2
f 93/3/2 92/3/2 94/3/2
f 95/3/2 96/3/2 97/3/2
f 97/3/2 96/3/2 98/3/2
f 99/5/2 100/5/2 101/5/2
f 101/5/2 100/5/2 102/5/2
f 103/1/2 104/1/2 105/1/2
f 105/1/2 104/1/2 106/1/2
f 107/1/2 108/1/2 109/1/2
f 109/1/2 108/1/2 110/1/2
f 111/5/2 112/5/2 114/5/2
f 113/5/2 114/5/2 116/5/2
f 115/5/2 116/5/2 117/5/2
f 114/5/2 112/5/2 118/5/2
f 117/5/2 116/5/2 118/5/2
f 116/5/2 114/5/2 118/5/2
f 119/1/2 120/1/2 121/1/2
f 121/1/2 120/1/2 122/1/2
f 123/3/2 124/3/2 127/3/2
f 124/4/2 125/4/2 128/4/2
f 127/3/2 124/3/2 128/3/2
f 125/2/2 126/2/2 129/2/2
f 128/4/2 125/4/2 129/4/2
f 129/2/2 126/2/2 130/2/2
f 131/3/2 132/3/2 136/3/2
f 132/3/2 133/3/2 136/3/2
f 133/4/2 134/4/2 137/4/2
f 136/3/2 133/3/2 137/3/2
f 134/2/2 135/2/2 138/2/2
f 137/4/2 134/4/2 138/4/2
f 138/2/2 135/2/2 139/2/2
f 140/3/2 141/3/2 145/3/2
f 144/3/2 145/3/2 147/3/2
f 146/3/2 147/3/2 149/3/2
f 148/3/2 149/3/2 150/3/2
f 141/4/2 142/4/2 151/4/2
f 150/3/2 149/3/2 151/3/2
f 145/3/2 141/3/2 151/3/2
f 149/3/2 147/3/2 151/3/2
f 147/3/2 145/3/2 151/3/2
f 142/2/2 143/2/2 152/2/2
f 151/4/2 142/4/2 152/4/2
f 152/2/2 143/2/2 153/2/2
f 156/3/3 155/3/3 154/3/3
f 157/3/3 155/3/3 156/3/3
f 160/3/3 159/3/3 158/3/3
f 161/3/3 159/3/3 160/3/3
f 164/3/3 163/3/3 162/3/3
f 165/3/3 163/3/3 164/3/3
f 168/3/3 167/3/3 166/3/3
f 169/3/3 167/3/3 168/3/3
f 172/3/3 171/3/3 170/3/3
f 173/3/3 171/3/3 172/3/3
f 176/3/3 175/3/3 174/3/3
f 177/3/3 175/3/3 176/3/3
f 180/3/3 179/3/3 178/3/3
f 181/3/3 179/3/3 180/3/3
f 185/3/3 183/3/3 182/3/3
f 186/3/3 183/3/3 185/3/3
f 187/3/3 183/3/3 186/3/3
f 190/3/3 185/3/3 184/3/3
f 190/3/3 186/3/3 185/3/3
f 191/3/3 186/3/3 190/3/3
f 194/3/3 189/3/3 188/3/3
f 195/3/3 189/3/3 194/3/3
f 197/1/3 193/1/3 192/1/3
f 198/1/3 193/1/3 197/1/3
f 200/1/3 197/1/3 196/1/3
f 200/1/3 199/1/3 198/1/3
f 200/1/3 198/1/3 197/1/3
f 201/1/3 199/1/3 200/1/3
f 202/1/3 199/1/3 201/1/3
f 203/1/3 199/1/3 202/1/3
f 204/3/3 190/3/3 184/3/3
f 206/1/3 202/1/3 201/1/3
f 207/1/3 202/1/3 206/1/3
f 210/3/3 205/3/3 204/3/3
f 210/3/3 204/3/3 184/3/3
f 211/3/3 205/3/3 210/3/3
f 212/3/3 205/3/3 211/3/3
f 214/3/3 209/3/3 208/3/3
f 215/3/3 209/3/3 214/3/3
f 216/3/3 213/3/3 212/3/3
f 216/3/3 212/3/3 211/3/3
f 217/3/3 213/3/3 216/3/3
f 221/6/3 219/6/3 218/6/3
f 222/6/3 219/6/3 221/6/3
f 223/6/3 219/6/3 222/6/3
f 224/6/3 219/6/3 223/6/3
f 226/6/3 221/6/3 220/6/3
f 226/6/3 222/6/3 221/6/3
f 227/6/3 222/6/3 226/6/3
f 228/6/3 225/6/3 224/6/3
f 228/6/3 224/6/3 223/6/3
f 229/6/3 225/6/3 228/6/3
f 230/6/3 226/6/3 220/6/3
f 233/6/3 225/6/3 229/6/3
f 234/6/3 231/6/3 230/6/3
f 234/6/3 230/6/3 220/6/3
f 235/6/3 231/6/3 234/6/3
f 236/6/3 231/6/3 235/6/3
f 237/6/3 233/6/3 232/6/3
f 238/6/3 225/6/3 233/6/3
f 238/6/3 233/6/3 237/6/3
f 239/6/3 225/6/3 238/6/3
f 240/6/3 236/6/3 235/6/3
f 240/6/3 237/6/3 236/6/3
f 240/6/3 238/6/3 237/6/3
f 241/6/3 238/6/3 240/6/3
f 244/5/3 243/5/3 242/5/3
f 245/5/3 243/5/3 244/5/3
f 248/5/3 247/5/3 246/5/3
f 249/5/3 247/5/3 248/5/3
f 252/5/3 251/5/3 250/5/3
f 253/5/3 251/5/3 252/5/3
f 256/5/3 255/5/3 254/5/3
f 257/5/3 255/5/3 256/5/3
f 258/2/4 259/2/4 261/2/4
f 261/2/4 259/2/4 262/2/4
f 260/2/4 261/2/4 265/2/4
f 262/2/4 263/2/4 265/2/4
f 261/2/4 262/2/4 265/2/4
f 264/5/4 265/5/4 266/5/4
f 266/5/4 265/5/4 267/5/4
f 267/5/4 265/5/4 269/5/4
f 268/5/4 269/5/4 270/5/4
f 265/2/4 263/2/4 271/2/4
f 270/5/4 269/5/4 271/5/4
f 269/5/4 265/5/4 271/5/4
f 271/2/4 263/2/4 272/2/4
f 272/2/4 263/2/4 273/2/4
f 273/2/4 263/2/4 274/2/4
f 274/2/4 263/2/4 275/2/4
f 273/2/4 274/2/4 276/2/4
f 276/2/4 274/2/4 277/2/4
f 282/5/5 279/5/5 278/5/5
f 283/5/5 279/5/5 282/5/5
f 284/5/5 281/5/5 280/5/5
f 285/5/5 281/5/5 284/5/5
f 288/5/5 287/5/5 286/5/5
f 289/5/5 287/5/5 288/5/5
f 290/5/5 287/5/5 289/5/5
f 291/5/5 287/5/5 290/5/5
f 292/5/5 290/5/5 289/5/5
f 293/5/5 290/5/5 292/5/5
f 296/5/5 295/5/5 294/5/5
f 297/5/5 295/5/5 296/5/5
f 300/3/5 299/3/5 298/3/5
f 301/3/5 299/3/5 300/3/5
f 302/4/5 301/4/5 300/4/5
f 303/4/5 301/4/5 302/4/5
f 304/2/5 303/2/5 302/2/5
f 305/2/5 303/2/5 304/2/5
f 306/2/5 304/2/5 302/2/5
f 307/2/5 306/2/5 302/2/5
f 308/2/5 307/2/5 302/2/5
f 309/2/5 307/2/5 308/2/5
f 310/2/5 303/2/5 305/2/5
f 311/2/5 303/2/5 310/2/5
f 316/3/5 313/3/5 312/3/5
f 317/3/5 313/3/5 316/3/5
f 318/3/5 315/3/5 314/3/5
f 319/3/5 315/3/5 318/3/5
f 320/4/5 317/4/5 316/4/5
f 321/4/5 317/4/5 320/4/5
f 322/4/5 319/4/5 318/4/5
f 323/4/5 319/4/5 322/4/5
f 324/2/5 321/2/5 320/2/5
f 325/2/5 321/2/5 324/2/5
f 326/2/5 323/2/5 322/2/5
f 327/2/5 323/2/5 326/2/5
f 330/1/5 329/1/5 328/1/5
f 331/1/5 329/1/5 330/1/5
f 336/3/5 333/3/5 332/3/5
f 337/3/5 333/3/5 336/3/5
f 342/3/5 335/3/5 334/3/5
f 343/3/5 335/3/5 342/3/5
f 344/1/5 339/1/5 338/1/5
f 345/1/5 339/1/5 344/1/5
f 346/1/5 341/1/5 340/1/5
f 347/1/5 341/1/5 346/1/5
f 352/3/5 349/3/5 348/3/5
f 353/3/5 349/3/5 352/3/5
f 354/3/5 351/3/5 350/3/5
f 355/3/5 351/3/5 354/3/5
f 360/3/5 357/3/5 356/3/5
f 361/3/5 357/3/5 360/3/5
f 362/3/5 359/3/5 358/3/5
f 363/3/5 359/3/5 362/3/5
f 368/3/5 365/3/5 364/3/5
f 369/3/5 365/3/5 368/3/5
f 370/3/5 367/3/5 366/3/5
f 371/3/5 367/3/5 370/3/5
f 374/3/5 373/3/5 372/3/5
f 375/3/5 373/3/5 374/3/5
f 376/3/5 375/3/5 374/3/5
f 377/3/5 375/3/5 376/3/5
f 378/3/5 375/3/5 377/3/5
f 379/3/5 375/3/5 378/3/5
f 380/3/5 378/3/5 377/3/5
f 381/3/5 378/3/5 380/3/5
f 382/3/6 383/3/6 384/3/6
f 384/3/6 383/3/6 385/3/6
f 386/3/6 387/3/6 390/3/6
f 390/3/6 387/3/6 391/3/6
f 388/3/6 389/3/6 392/3/6
f 392/3/6 389/3/6 393/3/6
f 394/1/6 395/1/6 398/1/6
f 398/1/6 395/1/6 399/1/6
f 396/1/6 397/1/6 400/1/6
f 400/1/6 397/1/6 401/1/6
f 402/1/6 403/1/6 404/1/6
f 404/1/6 403/1/6 405/1/6
f 406/3/6 407/3/6 410/3/6
f 410/3/6 407/3/6 411/3/6
f 408/3/6 409/3/6 412/3/6
f 412/3/6 409/3/6 413/3/6
f 410/4/6 411/4/6 414/4/6
f 414/4/6 411/4/6 415/4/6
f 412/4/6 413/4/6 416/4/6
f 416/4/6 413/4/6 417/4/6
f 414/2/6 415/2/6 418/2/6
f 418/2/6 415/2/6 419/2/6
f 416/2/6 417/2/6 420/2/6
f 420/2/6 417/2/6 421/2/6
f 422/3/6 423/3/6 424/3/6
f 424/3/6 423/3/6 425/3/6
f 424/4/6 425/4/6 426/4/6
f 426/4/6 425/4/6 427/4/6
f 426/2/6 427/2/6 428/2/6
f 428/2/6 427/2/6 429/2/6
